<?xml version="1.0" encoding="UTF-8"?>
<svg version="1.1" xmlns="http://www.w3.org/2000/svg" width="107" height="107">
<path d="M0 0 C35.31 0 70.62 0 107 0 C107 35.31 107 70.62 107 107 C71.69 107 36.38 107 0 107 C0 71.69 0 36.38 0 0 Z " fill="#FDFEFD" transform="translate(0,0)"/>
<path d="M0 0 C1.06992187 -0.03738281 2.13984375 -0.07476563 3.2421875 -0.11328125 C6.125 0.3125 6.125 0.3125 7.99609375 2.16015625 C9.33972761 4.72189417 9.36280156 6.45888129 9.125 9.3125 C10.5790625 8.57 10.5790625 8.57 12.0625 7.8125 C16.45496051 5.97420667 20.42277692 5.4391186 25.125 6.3125 C28.31808658 7.70796121 31.22188824 9.39081846 34.125 11.3125 C34.90875 10.673125 35.6925 10.03375 36.5 9.375 C41.21343389 5.67158766 45.26087999 5.67097069 51.125 6.3125 C55.64030089 8.52755327 59.85190958 11.71816047 62.125 16.3125 C64.0763066 25.45531561 60.27241294 34.82996415 57.125 43.3125 C56.125 44.3125 56.125 44.3125 53.625 44.4375 C51.125 44.3125 51.125 44.3125 50.125 43.3125 C49.7288083 38.7562955 50.3424445 35.20464763 51.625 30.8125 C52.89162598 26.40052052 53.79112261 22.88019792 53.125 18.3125 C50.83287837 15.47026917 49.24509999 15.32965714 45.625 14.8125 C42.10629639 15.00047531 42.10629639 15.00047531 39.9453125 17.14453125 C37.25848838 21.82052773 37.52739626 26.1953988 37.5 31.5 C37.47455501 33.49361465 37.44110389 35.4871483 37.3984375 37.48046875 C37.39247559 38.35985107 37.38651367 39.2392334 37.38037109 40.14526367 C37.125 42.3125 37.125 42.3125 35.125 44.3125 C30.56944444 43.75694444 30.56944444 43.75694444 29.125 42.3125 C29.01604389 40.65227893 28.96919029 38.98789136 28.94921875 37.32421875 C28.91344727 35.79958008 28.91344727 35.79958008 28.87695312 34.24414062 C28.83422112 32.09329642 28.80284262 29.94219463 28.78320312 27.79101562 C28.75548828 26.77072266 28.72777344 25.75042969 28.69921875 24.69921875 C28.68463623 23.76295654 28.67005371 22.82669434 28.6550293 21.86206055 C27.9689377 18.56180513 26.76109392 17.35892969 24.125 15.3125 C20.26837725 14.76155389 18.0392668 14.844217 14.5625 16.625 C11.91794708 21.56916415 14.24179486 27.18547641 15.703125 32.359375 C16.19612659 34.64178979 16.2218034 36.72986878 16.1875 39.0625 C16.17847656 39.86171875 16.16945313 40.6609375 16.16015625 41.484375 C16.14855469 42.08765625 16.13695313 42.6909375 16.125 43.3125 C13.75 43.9375 13.75 43.9375 11.125 44.3125 C8.67249969 41.85999969 8.46483981 40.28882754 7.6875 36.9296875 C7.43226562 35.84429687 7.17703125 34.75890625 6.9140625 33.640625 C6.65367188 32.50109375 6.39328125 31.3615625 6.125 30.1875 C5.60441193 27.95567194 5.08358378 25.72389987 4.5625 23.4921875 C4.19511719 21.90422363 4.19511719 21.90422363 3.8203125 20.28417969 C2.96205617 16.61609821 2.05334701 12.96340314 1.125 9.3125 C-0.009375 9.168125 -1.14375 9.02375 -2.3125 8.875 C-5.875 8.3125 -5.875 8.3125 -6.875 7.3125 C-7 4.3125 -7 4.3125 -6.875 1.3125 C-5.06850099 -0.49399901 -2.43748958 0.05553034 0 0 Z " fill="#55C18F" transform="translate(20.875,21.6875)"/>
<path d="M0 0 C1.07458969 -0.00637985 2.14917938 -0.0127597 3.2563324 -0.01933289 C4.42608109 -0.02044571 5.59582977 -0.02155853 6.80102539 -0.02270508 C7.99345352 -0.02603348 9.18588165 -0.02936188 10.41444397 -0.03279114 C12.94230767 -0.03786549 15.47017809 -0.04019931 17.99804688 -0.04003906 C21.87844818 -0.04222493 25.7585651 -0.06037389 29.63891602 -0.0793457 C32.08878483 -0.08227956 34.538655 -0.08426441 36.98852539 -0.08520508 C38.74011208 -0.09598335 38.74011208 -0.09598335 40.52708435 -0.10697937 C42.14369713 -0.10236443 42.14369713 -0.10236443 43.79296875 -0.09765625 C45.22073891 -0.09979378 45.22073891 -0.09979378 46.67735291 -0.10197449 C48.96118164 0.14526367 48.96118164 0.14526367 50.96118164 2.14526367 C50.42546735 5.68097796 50.42546735 5.68097796 48.96118164 7.14526367 C47.27862929 7.24401537 45.59194136 7.27325271 43.90649414 7.2746582 C42.28976807 7.27938644 42.28976807 7.27938644 40.64038086 7.28421021 C39.46749512 7.28218597 38.29460937 7.28016174 37.08618164 7.27807617 C35.89138184 7.2790329 34.69658203 7.27998962 33.46557617 7.28097534 C30.93351184 7.28165738 28.40144577 7.27980145 25.86938477 7.27563477 C21.97806904 7.27028688 18.08686875 7.275579 14.19555664 7.28198242 C11.74243138 7.28132164 9.2893062 7.28004049 6.83618164 7.27807617 C5.6632959 7.2801004 4.49041016 7.28212463 3.28198242 7.28421021 C2.20416504 7.28105804 1.12634766 7.27790588 0.01586914 7.2746582 C-0.93819824 7.27386261 -1.89226563 7.27306702 -2.87524414 7.27224731 C-5.03881836 7.14526367 -5.03881836 7.14526367 -6.03881836 6.14526367 C-6.16381836 3.64526367 -6.16381836 3.64526367 -6.03881836 1.14526367 C-4.36146352 -0.53209117 -2.30142147 0.00922406 0 0 Z " fill="#50BF8B" transform="translate(32.038818359375,69.854736328125)"/>
<path d="M0 0 C1.65 0 3.3 0 5 0 C4.67 1.65 4.34 3.3 4 5 C2.68 4.67 1.36 4.34 0 4 C0 2.68 0 1.36 0 0 Z " fill="#5DC494" transform="translate(36,80)"/>
<path d="M0 0 C2.475 0.495 2.475 0.495 5 1 C4.67 2.32 4.34 3.64 4 5 C2.68 4.67 1.36 4.34 0 4 C0 2.68 0 1.36 0 0 Z " fill="#5EC495" transform="translate(68,80)"/>
</svg>
