<?xml version="1.0" encoding="UTF-8"?>
<svg version="1.1" xmlns="http://www.w3.org/2000/svg" width="1360" height="382">
<path d="M0 0 C1.16213516 -0.00287018 2.32427032 -0.00574036 3.5216217 -0.00869751 C5.96811412 -0.01073003 8.41462308 -0.0052573 10.86108398 0.00732422 C14.58289351 0.02337384 18.30361474 0.00745426 22.02539062 -0.01171875 C24.41276279 -0.00973589 26.80013428 -0.00589134 29.1875 0 C30.28883774 -0.00607269 31.39017548 -0.01214539 32.52488708 -0.0184021 C41.80082108 0.06503399 50.26762672 1.41400884 57.66015625 7.3984375 C65.16240185 15.11503298 65.94236449 26.38247753 67.72265625 36.5234375 C68.10665034 38.69110707 68.49291063 40.85829587 68.88438416 43.02462769 C69.23807805 44.98440376 69.58422876 46.94553683 69.92993164 48.90673828 C70.61601765 52.18738093 71.52960855 55.24669923 72.66015625 58.3984375 C76.17158412 56.74401475 79.38153788 54.72168147 82.66015625 52.6484375 C108.40955639 36.68641842 133.69105579 32.03136013 163.20800781 38.80419922 C180.86908766 43.0840746 193.81587414 51.16161967 207.1328125 63.06542969 C210.16356323 65.7105542 213.39818158 68.04981574 216.66015625 70.3984375 C217.07265625 69.90214844 217.48515625 69.40585938 217.91015625 68.89453125 C233.71730471 50.29996153 255.3122252 40.31528336 279.36914062 37.58154297 C309.74171442 35.15406744 334.99608295 40.47482304 358.74609375 59.92578125 C375.10066047 73.98244769 389.97638374 94.55624934 392.66015625 116.3984375 C393.46819442 127.58117681 393.02161376 138.42995836 390.58203125 149.37890625 C390.36153107 150.39960709 390.14103088 151.42030792 389.91384888 152.47193909 C387.08729427 165.3329748 383.84246185 178.09157325 380.53515625 190.8359375 C380.20822784 192.09937988 379.88129944 193.36282227 379.54446411 194.66455078 C375.59823162 209.85934054 371.54988704 224.99678178 366.59765625 239.8984375 C366.38631042 240.54440887 366.1749646 241.19038025 365.95721436 241.85592651 C363.07411605 250.58343843 359.8813449 259.72783868 352.78515625 265.8984375 C345.29509713 269.49366588 338.55851048 270.31704715 330.55859375 267.71484375 C324.12555218 264.92056894 319.17407827 260.01997646 316.46484375 253.5390625 C313.01151722 240.06103081 319.116344 224.30043894 322.66015625 211.3984375 C322.99611816 210.17350586 323.33208008 208.94857422 323.67822266 207.68652344 C327.06281856 195.39133471 330.56691504 183.13045226 334.1328125 170.88671875 C334.43633385 169.84414162 334.43633385 169.84414162 334.74598694 168.78050232 C335.71084126 165.46881924 336.67943633 162.15833877 337.65356445 158.84936523 C344.62955368 136.09769104 344.62955368 136.09769104 339.66015625 113.3984375 C337.60514251 109.8034641 335.28110833 106.60001457 332.66015625 103.3984375 C332.10972656 102.69976562 331.55929687 102.00109375 330.9921875 101.28125 C323.30391071 92.55768649 310.24220932 86.26709148 298.66015625 85.3984375 C297.80421875 85.33011719 296.94828125 85.26179688 296.06640625 85.19140625 C281.46493523 84.62496987 268.02215922 89.61430065 256.84765625 98.8984375 C245.69231448 109.60305839 242.08032456 124.15002247 240.47265625 139.0234375 C240.38846436 139.79187988 240.30427246 140.56032227 240.2175293 141.35205078 C238.92018543 155.15758866 239.70411568 169.02729272 240.51574707 182.83605957 C241.3304299 196.93909393 241.87519545 211.02129544 241.91015625 225.1484375 C241.91764893 226.18736649 241.91764893 226.18736649 241.92529297 227.24728394 C242.07833553 252.7935306 242.07833553 252.7935306 232.953125 262.1484375 C226.36894008 268.11580335 220.1986637 269.11212686 211.40234375 268.84375 C204.51813044 268.02454299 200.28288935 264.36606895 195.72265625 259.3984375 C190.43732304 251.71068011 190.50877777 242.81141131 190.57836914 233.80151367 C190.5814357 232.86380127 190.58450226 231.92608887 190.58766174 230.95996094 C190.59479148 228.93133366 190.60416809 226.90271329 190.61555672 224.87410545 C190.63305476 221.64672256 190.6432824 218.41939 190.651474 215.19197083 C190.67581697 206.01766191 190.71114294 196.84342015 190.75610352 187.66918945 C190.78315068 182.04602316 190.80002256 176.42289642 190.81097221 170.7996769 C190.81711353 168.67377584 190.82703011 166.54788174 190.8410511 164.42201805 C191.49106086 129.81198355 191.49106086 129.81198355 175.91015625 100.1484375 C164.62417354 89.52633612 150.60644778 85.02842925 135.3515625 85.1875 C121.43512794 85.98272483 108.01138017 91.9702972 98.66015625 102.3984375 C92.59606321 110.49571573 87.9408979 117.88559914 89.12265015 128.12939453 C90.36698138 135.69725703 92.35814721 143.1176185 94.2109375 150.5546875 C94.6714069 152.42525369 95.13120808 154.29598448 95.59037781 156.16687012 C96.79783936 161.08012449 98.0131234 165.9914081 99.23046875 170.90222168 C101.16954965 178.73030404 103.09641085 186.56140341 105.02376366 194.39237976 C105.6904728 197.09667877 106.36035223 199.80017527 107.03083801 202.50354004 C108.25862375 207.46421959 109.46816904 212.42903573 110.66015625 217.3984375 C110.85641476 218.21481689 111.05267326 219.03119629 111.254879 219.87231445 C111.82742171 222.27526896 112.38698363 224.68086587 112.94213867 227.08789062 C113.11025464 227.79166084 113.27837061 228.49543106 113.451581 229.22052765 C115.73729227 239.32035461 116.41629422 250.0016018 111.66015625 259.3984375 C107.51147747 264.49538572 102.33785351 267.3220383 96.09765625 269.1484375 C88.19286535 269.95918529 83.21002186 268.7413488 76.53515625 264.3359375 C70.31839779 258.67984161 68.31505888 250.6306244 66.30175781 242.76489258 C66.08600727 241.93275899 65.87025673 241.1006254 65.64796829 240.24327564 C63.28999524 231.07918346 61.11483491 221.87300096 58.95703125 212.66015625 C58.51737632 210.79206058 58.07744233 208.92403057 57.63725281 207.05606079 C56.70705746 203.1075146 55.7780717 199.15868689 54.85006714 195.20962524 C52.4055451 184.80971362 49.94949135 174.4125228 47.4921875 164.015625 C47.12246417 162.45112956 47.12246417 162.45112956 46.74527168 160.85502815 C42.09817583 141.19683034 37.39618965 121.55232312 32.63362122 101.92178726 C32.10380078 99.73628363 31.57521882 97.55048402 31.04699707 95.36459351 C27.48773486 80.641996 23.87708922 65.94926841 19.66015625 51.3984375 C19.00120361 51.37861816 18.34225098 51.35879883 17.66333008 51.33837891 C-18.96977458 50.18050028 -18.96977458 50.18050028 -26.86328125 43.015625 C-32.72957247 36.53896822 -32.78706931 29.3612194 -32.6484375 21.03515625 C-32.09300168 14.48945054 -29.83874972 10.57616833 -25.15234375 6.0859375 C-17.52611724 0.28332938 -9.29015622 -0.05113124 0 0 Z " fill="#4EBE8A" transform="translate(32.33984375,-0.3984375)"/>
<path d="M0 0 C1.68101979 1.46283433 3.3493908 2.94043584 5 4.4375 C5.63164063 4.97632812 6.26328125 5.51515625 6.9140625 6.0703125 C14.19866191 12.68965169 20.08391345 22.50237848 24 31.4375 C24 32.7575 24 34.0775 24 35.4375 C-1.76376337 48.52577121 -1.76376337 48.52577121 -14 53.4375 C-14.61875 52.18646484 -14.61875 52.18646484 -15.25 50.91015625 C-22.38241083 37.01150746 -31.0660315 27.23739624 -46.3125 22.0625 C-63.20424455 17.42476659 -79.1451605 19.33948269 -94.43359375 27.78125 C-108.86164555 36.78315407 -117.15918594 50.0665054 -121 66.4375 C-125.0119861 87.38229119 -123.0414969 109.39895838 -111 127.4375 C-101.03553438 140.35904624 -88.3380012 148.58549449 -72.07421875 150.84375 C-56.51189651 152.48385103 -42.05076427 149.31415864 -29.57421875 139.703125 C-22.45467311 133.43706055 -17.81216167 126.05151916 -14 117.4375 C-1.04608585 122.87517456 11.48245697 129.06622291 24 135.4375 C22.19940454 149.59390568 10.67156258 162.3969017 -0.09765625 171.140625 C-19.27045006 185.35217834 -44.07471622 193.28043795 -68 191.4375 C-68.95108643 191.37369141 -68.95108643 191.37369141 -69.92138672 191.30859375 C-99.82741275 189.17684138 -123.93725048 176.75944015 -144 154.4375 C-161.72622778 133.33799753 -169.03785309 103.5397948 -167 76.4375 C-163.96545531 46.38453931 -152.30216168 21.56052017 -129.5 1.375 C-93.75310763 -27.51321289 -36.15195117 -28.99070401 0 0 Z " fill="#2A3341" transform="translate(986,77.5625)"/>
<path d="M0 0 C1.21148138 -0.00467997 2.42296276 -0.00935994 3.67115569 -0.01418173 C7.0079822 -0.02402652 10.34429691 -0.02055264 13.68109155 -0.01122308 C17.28995984 -0.00440468 20.89878506 -0.01492777 24.50764465 -0.02316284 C31.56828309 -0.03647436 38.62882563 -0.03363351 45.68946776 -0.02492492 C51.43234754 -0.01813645 57.17520054 -0.01723668 62.91808319 -0.02049637 C63.73696846 -0.02095607 64.55585373 -0.02141577 65.3995537 -0.0218894 C67.06340713 -0.02284863 68.72726055 -0.02382127 70.39111397 -0.02480717 C85.97980454 -0.03335406 101.56844213 -0.02353906 117.15712401 -0.00740607 C130.51059867 0.00598642 143.86399503 0.00367648 157.21746826 -0.01016235 C172.74601553 -0.02624792 188.27451634 -0.0325196 203.80307078 -0.02332556 C205.46186113 -0.02236998 207.12065148 -0.02142687 208.77944183 -0.02049637 C209.59546274 -0.02003354 210.41148364 -0.01957072 211.25223245 -0.01909386 C216.9810453 -0.01651214 222.70982852 -0.02085748 228.43863678 -0.02793503 C235.43077355 -0.03638382 242.42280939 -0.03399975 249.41493472 -0.0180928 C252.97721377 -0.01025369 256.53932507 -0.00704298 260.10160255 -0.01704025 C263.97611265 -0.02774852 267.85035314 -0.01489056 271.72485352 0 C273.38686952 -0.01003825 273.38686952 -0.01003825 275.0824616 -0.02027929 C284.87772683 0.05226872 297.01352112 0.55785985 304.61639404 7.38095093 C309.81079257 12.81145847 311.66779561 17.20906427 311.99139404 24.63095093 C311.82884622 31.2683203 310.45373375 37.14802058 305.99139404 42.23251343 C297.36787566 49.52657272 285.58861587 49.825969 274.82023621 49.76863098 C273.58859507 49.77401652 272.35695394 49.77940206 271.08799034 49.78495079 C267.70429251 49.79669867 264.32109314 49.79519909 260.9374162 49.78778398 C257.27478314 49.7830246 253.61220124 49.79558629 249.94958496 49.80580139 C242.78863255 49.8229393 235.62776808 49.82384006 228.4668005 49.81858849 C222.64432691 49.81453712 216.82187918 49.81600179 210.99940681 49.82133675 C210.16882491 49.82208517 209.33824301 49.82283359 208.48249196 49.82360469 C206.79487641 49.82513625 205.10726086 49.8266746 203.41964532 49.82821966 C187.61834617 49.84192592 171.81709663 49.83651963 156.01579864 49.82503445 C141.57449012 49.81509832 127.13330966 49.82805262 112.69202089 49.85196864 C97.84208159 49.87637512 82.99220191 49.88596406 68.14224297 49.87931591 C59.81366217 49.87582787 51.48517988 49.87802861 43.1566143 49.89556694 C36.06890037 49.91030807 28.98135438 49.91089917 21.89364367 49.89349603 C18.28104198 49.88500038 14.66874008 49.88280106 11.05615425 49.89814758 C7.13247319 49.91460883 3.20925163 49.89980986 -0.71443176 49.88215637 C-1.84538051 49.89176138 -2.97632925 49.90136639 -4.14154917 49.91126245 C-12.13876408 49.83742731 -20.2581686 48.83488623 -26.5919295 43.53207868 C-31.56341406 38.43031522 -34.23914815 32.77749283 -34.47344971 25.64657593 C-34.04926671 17.7719993 -32.00190409 11.59502083 -26.25860596 6.06845093 C-18.50534202 0.16863134 -9.38777887 -0.05624736 0 0 Z " fill="#4EBE8A" transform="translate(109.38360595703125,287.6190490722656)"/>
<path d="M0 0 C0.83015625 0.68578125 1.6603125 1.3715625 2.515625 2.078125 C3.36640625 2.74328125 4.2171875 3.4084375 5.09375 4.09375 C19.49983479 16.02516992 27.5144122 34.29230484 29.98828125 52.5703125 C31.985168 74.28358685 27.10391837 94.63327679 13.28125 111.86328125 C11.10044092 114.35617163 8.85526758 116.73432675 6.515625 119.078125 C5.90332031 119.70203125 5.29101562 120.3259375 4.66015625 120.96875 C-9.98821115 134.83628758 -30.21393257 140.69872889 -49.984375 141.328125 C-70.97202796 140.69691739 -90.78521759 134.2525441 -106.484375 120.078125 C-107.11859375 119.51351562 -107.7528125 118.94890625 -108.40625 118.3671875 C-122.89709653 104.70988524 -130.35076271 85.27094485 -130.95751953 65.61694336 C-131.16102025 43.0635137 -124.93525564 22.88287838 -108.94189453 6.49169922 C-80.40949358 -21.18042834 -31.44812964 -24.66889212 0 0 Z M-66.484375 25.078125 C-67.14566406 25.4184375 -67.80695312 25.75875 -68.48828125 26.109375 C-77.83432716 31.35876701 -82.97632093 39.19566936 -86.16796875 49.2265625 C-89.41825811 61.64490944 -87.72570079 75.13569438 -81.578125 86.40625 C-79.86034915 89.03199308 -77.83243796 91.00959334 -75.484375 93.078125 C-74.576875 93.92375 -73.669375 94.769375 -72.734375 95.640625 C-64.62949331 102.27950742 -54.68129323 103.98480974 -44.484375 103.078125 C-34.72530236 101.10367345 -26.76749941 96.61992656 -20.63671875 88.6875 C-13.22111017 77.09947284 -11.83067276 64.53779169 -13.953125 51.11328125 C-16.79394826 40.40946503 -23.1063267 31.47812471 -32.6328125 25.796875 C-42.69669493 20.55916667 -56.30087599 19.8045273 -66.484375 25.078125 Z " fill="#2A3341" transform="translate(784.484375,127.921875)"/>
<path d="M0 0 C13.70085025 12.11423952 22.68103806 29.37673132 24.8671875 47.53515625 C26.16133383 71.84551469 21.87039791 92.6880399 5.6796875 111.66015625 C-9.26704369 127.59155385 -29.36874377 136.64761444 -51.1328125 137.53515625 C-51.81859375 137.57511719 -52.504375 137.61507812 -53.2109375 137.65625 C-76.70954979 138.39602113 -97.64024876 129.34806182 -114.6328125 113.47265625 C-129.40628757 98.26010937 -135.91930926 78.50117478 -136.1328125 57.53515625 C-135.30454199 35.57026098 -127.08931477 15.45458693 -110.8203125 0.34765625 C-78.34783995 -27.19299026 -32.76886436 -25.78198679 0 0 Z M-83.3828125 30.91015625 C-90.03300663 39.13254301 -92.52893978 48.46271979 -92.4453125 58.91015625 C-92.43967285 59.65402588 -92.4340332 60.39789551 -92.42822266 61.16430664 C-92.18739669 72.11235026 -88.65878443 81.82203019 -80.94140625 89.80078125 C-72.85127989 96.81308981 -63.60523371 100.33156483 -52.859375 99.8515625 C-44.13450156 98.83907719 -37.68640333 96.41543295 -31.1328125 90.53515625 C-30.2253125 89.73078125 -29.3178125 88.92640625 -28.3828125 88.09765625 C-20.28269029 78.87251706 -17.77326936 67.76124158 -17.921875 55.75390625 C-18.66872095 44.35759029 -22.63441026 34.31862091 -31.1953125 26.59765625 C-38.56899059 20.6484387 -45.43164785 18.14193232 -55.0078125 18.22265625 C-56.06162109 18.23111572 -56.06162109 18.23111572 -57.13671875 18.23974609 C-68.28371995 18.49987713 -75.93296867 22.7321322 -83.3828125 30.91015625 Z " fill="#2A3341" transform="translate(569.1328125,131.46484375)"/>
<path d="M0 0 C9.49222714 7.82240912 16.19765344 18.61731632 18.34570312 30.76855469 C18.61028366 34.40947207 18.59924589 38.03345784 18.57275391 41.68261719 C18.57304596 42.74692459 18.57333801 43.81123199 18.57363892 44.90779114 C18.57225275 48.40313045 18.55672502 51.89825291 18.54101562 55.39355469 C18.53728297 57.82592655 18.53443719 60.25829992 18.53244019 62.69067383 C18.52482368 69.07586864 18.50519217 75.46097168 18.48303223 81.84613037 C18.46253109 88.36843627 18.45342935 94.89075707 18.44335938 101.41308594 C18.42194443 114.19828888 18.38677841 126.98339978 18.34570312 139.76855469 C5.47570313 139.76855469 -7.39429688 139.76855469 -20.65429688 139.76855469 C-20.98429687 136.13855469 -21.31429688 132.50855469 -21.65429688 128.76855469 C-22.56179688 129.63480469 -23.46929688 130.50105469 -24.40429688 131.39355469 C-36.36770892 141.49439959 -52.25856914 144.96793858 -67.65429688 143.76855469 C-68.729375 143.68734375 -69.80445313 143.60613281 -70.91210938 143.52246094 C-87.03331656 141.77329192 -100.63077811 135.43117335 -111.15039062 122.88574219 C-118.05869112 113.16029058 -118.57405638 102.29801066 -117.65429688 90.76855469 C-115.83212868 80.64813406 -109.75672436 73.62071848 -101.70507812 67.54199219 C-86.31515708 57.43348316 -68.05945241 54.67847963 -50.34179688 50.95605469 C-47.96989433 50.44963152 -45.59814813 49.94247551 -43.2265625 49.43457031 C-40.97735406 48.95539464 -38.72801001 48.47685494 -36.47851562 47.99902344 C-35.42033127 47.77409714 -34.36214691 47.54917084 -33.27189636 47.31742859 C-32.29940445 47.11333878 -31.32691254 46.90924896 -30.32495117 46.69897461 C-29.46862595 46.51864182 -28.61230072 46.33830902 -27.73002625 46.1525116 C-25.65429688 45.76855469 -25.65429688 45.76855469 -23.65429688 45.76855469 C-23.90463957 39.43488438 -24.22462661 34.65255011 -28.65429688 29.76855469 C-35.77948668 24.38442769 -41.8060741 23.09379813 -50.65429688 23.76855469 C-59.083648 25.17130167 -66.04250028 29.0706331 -71.29101562 35.89746094 C-73.17063806 38.82191647 -74.552171 41.46217706 -75.65429688 44.76855469 C-80.10840807 44.12603269 -83.87433695 42.43402763 -87.88867188 40.49511719 C-88.90661835 40.00850113 -88.90661835 40.00850113 -89.94512939 39.51205444 C-91.37191771 38.82742369 -92.79725007 38.13975132 -94.22119141 37.44921875 C-96.40571 36.39287136 -98.59791821 35.35382623 -100.79101562 34.31542969 C-102.17823502 33.64719717 -103.56497145 32.97796092 -104.95117188 32.30761719 C-105.60841248 31.99813141 -106.26565308 31.68864563 -106.94281006 31.36978149 C-108.5530413 30.57893897 -110.10981209 29.68115717 -111.65429688 28.76855469 C-112.65429688 25.76855469 -112.65429688 25.76855469 -111.75585938 23.42089844 C-107.87836464 16.29164225 -103.37169526 10.51647299 -97.65429688 4.76855469 C-96.87699219 3.93904297 -96.87699219 3.93904297 -96.08398438 3.09277344 C-72.11747578 -20.18360009 -25.70540687 -19.1348985 0 0 Z M-35.63867188 78.34277344 C-36.41309631 78.50848343 -37.18752075 78.67419342 -37.9854126 78.84492493 C-39.62330067 79.19808283 -41.26064071 79.55379071 -42.89746094 79.91186523 C-45.37872856 80.45050426 -47.8638266 80.96801468 -50.34960938 81.48535156 C-63.36563761 84.11014349 -63.36563761 84.11014349 -73.65429688 92.14355469 C-75.33063223 96.543935 -75.37560828 100.13611309 -73.46679688 104.45605469 C-70.30768852 108.48664121 -66.93876888 111.30446586 -61.85351562 112.50683594 C-51.77830481 113.70583971 -43.00073151 111.47990067 -34.65429688 105.76855469 C-29.61621687 101.29116423 -25.41248532 96.36176135 -23.65429688 89.76855469 C-23.43467071 85.42199956 -23.47778971 81.11586067 -23.65429688 76.76855469 C-27.83256168 76.76855469 -31.58205669 77.47149622 -35.63867188 78.34277344 Z " fill="#2A3341" transform="translate(1131.654296875,125.2314453125)"/>
<path d="M0 0 C13.86 0 27.72 0 42 0 C42 14.85 42 29.7 42 45 C53.55 45 65.1 45 77 45 C77 56.88 77 68.76 77 81 C65.45 81 53.9 81 42 81 C42.08881726 88.77384774 42.17947843 96.54731282 42.28729248 104.32086182 C42.33700122 107.94173523 42.38348825 111.5625811 42.421875 115.18359375 C42.45905501 118.67858022 42.50549783 122.17333745 42.55806351 125.66812515 C42.58530737 127.63421302 42.60323463 129.60042298 42.62094116 131.56661987 C42.62242404 144.5954068 42.62242404 144.5954068 48 156 C48 156.66 48 157.32 48 158 C49.65984798 158.68346682 51.32836805 159.34588315 53 160 C53.8559375 160.3403125 54.711875 160.680625 55.59375 161.03125 C59.8830641 162.25114667 63.93905344 162.45460409 68.375 162.625 C71.22125 162.74875 74.0675 162.8725 77 163 C77 173.89 77 184.78 77 196 C57.08357304 198.84520385 37.40489572 198.05502348 20 187 C8.59086108 177.94977764 2.47294274 166.15919009 0.73165894 151.78483582 C-0.05552778 143.9670802 -0.12884641 136.2156851 -0.09765625 128.36328125 C-0.09578608 126.98894808 -0.09436502 125.61461423 -0.09336853 124.24028015 C-0.08959042 120.66144905 -0.07980163 117.08265996 -0.06866455 113.50384521 C-0.05834796 109.83655363 -0.05384918 106.16925511 -0.04882812 102.50195312 C-0.03817405 95.33461425 -0.02061671 88.16731841 0 81 C-8.25 81 -16.5 81 -25 81 C-25 69.12 -25 57.24 -25 45 C-21.04 44.34 -17.08 43.68 -13 43 C-7.35665731 40.33508817 -4.55929078 38.44439566 -1.81640625 32.65283203 C-0.01549501 26.80094761 -0.3142051 20.57196808 -0.25 14.5 C-0.1675 9.715 -0.085 4.93 0 0 Z " fill="#2A3341" transform="translate(1283,70)"/>
<path d="M0 0 C13.86 0 27.72 0 42 0 C42 67.65 42 135.3 42 205 C28.14 205 14.28 205 0 205 C0 137.35 0 69.7 0 0 Z " fill="#2A3341" transform="translate(603,60)"/>
<path d="M0 0 C3.114375 0.020625 6.22875 0.04125 9.4375 0.0625 C9.4375 12.2725 9.4375 24.4825 9.4375 37.0625 C-3.375 37.3125 -3.375 37.3125 -7.34301758 37.36035156 C-18.00226467 37.66565901 -27.049896 39.65608614 -34.91015625 47.2109375 C-41.55420128 54.6560376 -42.85517861 63.42886748 -42.88134766 73.04882812 C-42.89641609 74.33805176 -42.89641609 74.33805176 -42.91178894 75.65332031 C-42.9424405 78.46679067 -42.95960555 81.28016667 -42.9765625 84.09375 C-42.99528868 86.05530601 -43.01486316 88.01685408 -43.0352478 89.97839355 C-43.08642186 95.12063913 -43.12612617 100.26291077 -43.16339111 105.40527344 C-43.21058956 111.58623882 -43.27212396 117.76707631 -43.33123779 123.94793701 C-43.41927038 133.31940597 -43.48916339 142.69085264 -43.5625 152.0625 C-57.4225 152.0625 -71.2825 152.0625 -85.5625 152.0625 C-85.5625 102.5625 -85.5625 53.0625 -85.5625 2.0625 C-72.6925 2.0625 -59.8225 2.0625 -46.5625 2.0625 C-46.0675 10.9725 -46.0675 10.9725 -45.5625 20.0625 C-44.7375 18.886875 -43.9125 17.71125 -43.0625 16.5 C-36.19876084 7.48136599 -28.93351946 2.54871799 -17.55053711 0.7434082 C-11.69481462 0.0042358 -5.89447255 -0.0557712 0 0 Z " fill="#2A3341" transform="translate(1247.5625,112.9375)"/>
<path d="M0 0 C4.86182377 2.43091188 7.80741607 5.71281586 11 10 C12.81020278 15.43060835 12.70097747 20.09743772 10.3125 25.25 C8.04824738 29.35143979 5.19903639 31.90048181 1 34 C-4.53042052 34.50502343 -9.41030524 34.73807257 -14.5 32.375 C-19.16939467 27.93907506 -21.76603429 23.76079534 -22.3125 17.3125 C-22.23358418 12.5512454 -20.78830186 8.84563956 -18 5 C-12.27283378 0.44164322 -7.17662965 -0.87399778 0 0 Z " fill="#4EBD8A" transform="translate(158,348)"/>
<path d="M0 0 C3.56656433 2.59664212 5.59935666 5.02194081 6.35546875 9.4140625 C6.24538812 21.0000491 6.24538812 21.0000491 1.82421875 26.328125 C-3.14325878 30.28183161 -7.21213963 30.98016414 -13.5234375 30.703125 C-18.28829466 30.02944858 -21.47489142 28.57066725 -24.48828125 24.59765625 C-27.31767642 19.67568757 -28.14198597 14.9204008 -27.17578125 9.328125 C-25.41749072 4.01564292 -22.95573173 0.39219582 -18.17578125 -2.671875 C-11.84919275 -4.78073783 -5.80066728 -2.86993182 0 0 Z " fill="#4EBE8A" transform="translate(355.17578125,351.671875)"/>
</svg>
