<?xml version="1.0" encoding="UTF-8"?>
<svg version="1.1" xmlns="http://www.w3.org/2000/svg" width="213" height="213">
<path d="M0 0 C1.26070312 1.19689453 1.26070312 1.19689453 2.546875 2.41796875 C6.89899187 6.12300994 12.30375756 7.32669489 17.6875 8.9375 C28.26698704 12.1226504 38.2610697 15.85487009 46.4375 23.5625 C47.21996094 24.28566406 48.00242188 25.00882813 48.80859375 25.75390625 C55.01271714 32.11285625 59.14102724 38.99890408 59.4375 48.0625 C58.89486182 58.04704251 54.6278929 64.25463108 48.48828125 71.84765625 C46.40523738 74.43374548 44.61038387 77.10256161 42.875 79.9375 C38.66213654 86.3689022 32.85391749 90.36863546 25.5 92.5390625 C20.1261617 93.52986394 14.19792557 93.76967517 8.85864258 92.48461914 C5.04793842 91.83859918 1.31284546 91.95532697 -2.53515625 92.04296875 C-4.23980644 92.06888639 -5.94447959 92.09332731 -7.64916992 92.11645508 C-8.53446381 92.12899323 -9.41975769 92.14153137 -10.33187866 92.15444946 C-39.82188176 92.5113867 -39.82188176 92.5113867 -54 88 C-55.20269531 87.62617188 -56.40539062 87.25234375 -57.64453125 86.8671875 C-70.96691267 82.18341662 -84.81600999 74.6101797 -91.5625 61.625 C-95.26910257 52.27791526 -94.91174233 43.76687718 -91.140625 34.4453125 C-89.29116533 30.48037498 -87.22997209 27.17541687 -84.0625 24.1484375 C-81.91811372 21.9147018 -80.52398559 19.7501811 -79 17.0625 C-72.22620507 5.15313772 -61.92694762 -1.79320677 -49 -6 C-33.16484517 -10.30229669 -13.95144937 -9.1715615 0 0 Z " fill="#1E552C" transform="translate(124,64)"/>
<path d="M0 0 C1.40250008 1.18357324 2.78504129 2.39071461 4.1640625 3.6015625 C5.1540625 3.9315625 6.1440625 4.2615625 7.1640625 4.6015625 C7.1640625 5.5915625 7.1640625 6.5815625 7.1640625 7.6015625 C5.3696875 7.694375 5.3696875 7.694375 3.5390625 7.7890625 C-0.39194146 8.26928986 -2.18375716 9.55774556 -5.10946655 12.26699829 C-12.38866535 17.8938281 -21.28356208 18.06994247 -30.046875 17.640625 C-32.36714326 17.58030485 -34.68745839 17.52176592 -37.0078125 17.46484375 C-40.61176004 17.35350786 -44.21327987 17.22645874 -47.81542969 17.06689453 C-64.27371815 15.81902073 -64.27371815 15.81902073 -78.765625 22.31640625 C-84.6451113 27.84324657 -90.35282628 34.29424064 -91.109375 42.60546875 C-91.39777656 52.71061579 -89.64926132 59.60190108 -82.8984375 67.2265625 C-74.03801538 75.35820531 -62.22583693 80.30448635 -50.8359375 83.6015625 C-49.19625 84.08109375 -49.19625 84.08109375 -47.5234375 84.5703125 C-33.03105894 88.00271795 -17.63617226 86.86412125 -2.8359375 86.6015625 C-2.71605469 85.99570313 -2.59617187 85.38984375 -2.47265625 84.765625 C-1.48153061 81.39701394 0.51797626 79.83603532 3.1640625 77.6015625 C9.82602116 74.45443592 17.57696791 75.34257378 24.77929688 75.47460938 C34.12391704 75.35660756 38.60057538 72.22364105 45.00854492 65.73339844 C51.59243056 58.71366776 52.72503289 52.46717105 52.5234375 42.9921875 C51.96894316 37.76065394 50.39356677 33.75657259 46.52734375 30.01953125 C45.1640625 28.6015625 45.1640625 28.6015625 45.1640625 26.6015625 C44.59429687 26.33859375 44.02453125 26.075625 43.4375 25.8046875 C41.01001486 24.52003901 38.97729673 23.00954202 36.7890625 21.3515625 C29.34697646 16.06724105 20.93199613 12.88717505 12.3515625 9.9140625 C11.2996875 9.4809375 10.2478125 9.0478125 9.1640625 8.6015625 C8.6690625 7.1165625 8.6690625 7.1165625 8.1640625 5.6015625 C25.9875958 8.92459413 42.23451026 16.74384138 53.1640625 31.6015625 C57.46865578 39.50660262 58.5023259 47.18839095 56.2890625 55.9140625 C54.23197684 61.47508355 50.33705388 65.89223724 46.65234375 70.44921875 C44.56929988 73.03530798 42.77444637 75.70412411 41.0390625 78.5390625 C36.82619904 84.9704647 31.01797999 88.97019796 23.6640625 91.140625 C18.2902242 92.13142644 12.36198807 92.37123767 7.02270508 91.08618164 C3.21200092 90.44016168 -0.52309204 90.55688947 -4.37109375 90.64453125 C-6.07574394 90.67044889 -7.78041709 90.69488981 -9.48510742 90.71801758 C-10.37040131 90.73055573 -11.25569519 90.74309387 -12.16781616 90.75601196 C-41.65781926 91.1129492 -41.65781926 91.1129492 -55.8359375 86.6015625 C-57.03863281 86.22773438 -58.24132812 85.85390625 -59.48046875 85.46875 C-72.80285017 80.78497912 -86.65194749 73.2117422 -93.3984375 60.2265625 C-97.10504007 50.87947776 -96.74767983 42.36843968 -92.9765625 33.046875 C-91.12710283 29.08193748 -89.06590959 25.77697937 -85.8984375 22.75 C-83.75405122 20.5162643 -82.35992309 18.3517436 -80.8359375 15.6640625 C-74.06214257 3.75470022 -63.76288512 -3.19164427 -50.8359375 -7.3984375 C-34.38617747 -11.86771796 -13.9088725 -10.59441777 0 0 Z " fill="#8FB73F" transform="translate(125.8359375,65.3984375)"/>
<path d="M0 0 C2.36704992 0.0369813 4.73254164 0.04101419 7.09985352 0.04052734 C15.77786008 0.08115886 23.6057217 0.64469695 31.90649414 3.41162109 C31.90649414 4.40162109 31.90649414 5.39162109 31.90649414 6.41162109 C30.11211914 6.50443359 30.11211914 6.50443359 28.28149414 6.59912109 C24.35013722 7.07939157 22.55784138 8.36798474 19.63241577 11.07815552 C12.39327314 16.67119481 3.29268812 16.95087921 -5.44506836 16.73193359 C-6.58454926 16.72153046 -7.72403015 16.71112732 -8.89804077 16.70040894 C-12.50540694 16.66508956 -16.11158489 16.60280756 -19.71850586 16.53662109 C-23.33244899 16.48111849 -26.94621769 16.43170711 -30.56039429 16.39425659 C-32.79884686 16.37002058 -35.03721861 16.3350957 -37.27529907 16.28762817 C-43.56189737 16.20750989 -49.01202357 16.79311733 -55.09350586 18.41162109 C-52.19134146 11.92102072 -45.15285731 9.18892033 -38.86303711 6.43505859 C-36.62826739 5.64835049 -34.37870308 5.03942935 -32.09350586 4.41162109 C-30.9993335 4.08492432 -29.90516113 3.75822754 -28.77783203 3.42163086 C-19.0442331 0.70506117 -10.08635349 -0.16276836 0 0 Z " fill="#91B741" transform="translate(101.093505859375,66.58837890625)"/>
<path d="M0 0 C1.0230318 1.31574455 2.02616788 2.64743622 3 4 C1.25650269 3.96072388 1.25650269 3.96072388 -0.5222168 3.9206543 C-40.44441005 1.64083677 -40.44441005 1.64083677 -75.33984375 18.21484375 C-75.88769531 18.80394531 -76.43554688 19.39304687 -77 20 C-73.535 19.505 -73.535 19.505 -70 19 C-72.64192336 21.75574772 -75.33470234 24.03448417 -78.4375 26.25 C-86.00058389 32.09928163 -88.70556985 38.896895 -91 48 C-91.66 48 -92.32 48 -93 48 C-93.83260181 39.67398193 -91.37871447 34.05170644 -87 27 C-85.37446717 25.29319053 -83.70884005 23.62339805 -82 22 C-80.41931734 19.5448098 -78.96179334 17.04306852 -77.52734375 14.5 C-70.58155169 3.1309286 -58.86071953 -3.32091404 -46.25390625 -6.74609375 C-31.37013352 -9.87838264 -12.78944971 -9.02935149 0 0 Z " fill="#A3CA3B" transform="translate(124,64)"/>
<path d="M0 0 C0.495 0.99 0.495 0.99 1 2 C1.99 2.495 1.99 2.495 3 3 C3.55558594 3.29519531 4.11117187 3.59039062 4.68359375 3.89453125 C7.11837203 5.05649121 9.60382933 6.00584886 12.12817383 6.95385742 C30.20719072 13.81078608 30.20719072 13.81078608 35 21 C33.515 21.495 33.515 21.495 32 22 C32 21.34 32 20.68 32 20 C31.34 20 30.68 20 30 20 C30 19.34 30 18.68 30 18 C28.515 17.505 28.515 17.505 27 17 C25 16.33333333 23 15.66666667 21 15 C20.67 15.66 20.34 16.32 20 17 C19.01 17 18.02 17 17 17 C17 17.66 17 18.32 17 19 C14.54351518 20.55577372 12.77314468 21.17101155 9.8984375 20.53515625 C8.25242147 19.99631387 6.60922392 19.44880789 4.96850586 18.89404297 C-5.16709201 15.8414433 -15.68333073 15.64575726 -26.1875 15.6875 C-26.85999786 15.68766113 -27.53249573 15.68782227 -28.22537231 15.68798828 C-39.05858116 15.70599673 -49.43712289 16.56575671 -60 19 C-60 18.34 -60 17.68 -60 17 C-64.62 17 -69.24 17 -74 17 C-73.67 16.01 -73.34 15.02 -73 14 C-73.5775 14.474375 -74.155 14.94875 -74.75 15.4375 C-77 17 -77 17 -79 17.4375 C-81.76271466 18.2145135 -83.03509657 19.96959979 -85 22 C-85.66 22 -86.32 22 -87 22 C-87.33 22.99 -87.66 23.98 -88 25 C-88.99 25.33 -89.98 25.66 -91 26 C-91.66 25.34 -92.32 24.68 -93 24 C-91.81636735 22.93319343 -90.6278313 21.8718271 -89.4375 20.8125 C-88.77621094 20.22082031 -88.11492187 19.62914063 -87.43359375 19.01953125 C-86.63050781 18.35308594 -85.82742187 17.68664062 -85 17 C-84.04005127 16.14051758 -83.08010254 15.28103516 -82.09106445 14.39550781 C-77.10476062 10.87897722 -71.99548424 11.4449725 -66.109375 11.65234375 C-64.96897766 11.66890518 -63.82858032 11.68546661 -62.65362549 11.70252991 C-59.01816795 11.75681295 -55.38463953 11.84375416 -51.75 11.9375 C-48.12971773 12.02611168 -44.51017828 12.10673295 -40.88922119 12.16175842 C-38.64155268 12.19617039 -36.39406237 12.24940016 -34.1473999 12.32493591 C-25.7073551 12.45865719 -17.17908895 11.26325137 -10.8125 5.25 C-6.95503635 2.16402908 -4.82223224 2.58429032 0 3 C0 2.01 0 1.02 0 0 Z " fill="#5A7A61" transform="translate(133,70)"/>
<path d="M0 0 C0 0.66 0 1.32 0 2 C1.65 2 3.3 2 5 2 C4.67 2.66 4.34 3.32 4 4 C1.78515625 4.37890625 1.78515625 4.37890625 -0.9375 4.5625 C-4.60675121 4.76801323 -4.60675121 4.76801323 -8 6 C-7.34 7.98 -6.68 9.96 -6 12 C-12.93 11.505 -12.93 11.505 -20 11 C-20 11.66 -20 12.32 -20 13 C-16.37 13 -12.74 13 -9 13 C-9.33 14.65 -9.66 16.3 -10 18 C-9.01 18.33 -8.02 18.66 -7 19 C-7.91523437 19.10957031 -8.83046875 19.21914062 -9.7734375 19.33203125 C-10.96195313 19.49058594 -12.15046875 19.64914063 -13.375 19.8125 C-14.55835938 19.96332031 -15.74171875 20.11414063 -16.9609375 20.26953125 C-20.29532084 20.70699334 -20.29532084 20.70699334 -22 24 C-22.53625 23.505 -23.0725 23.01 -23.625 22.5 C-26.62494296 20.60529918 -28.51044604 20.69656053 -32 21 C-34.51083114 22.25541557 -34.87125446 23.50063488 -36 26 C-36 25.01 -36 24.02 -36 23 C-38.64 23 -41.28 23 -44 23 C-44 21.68 -44 20.36 -44 19 C-41.03 19 -38.06 19 -35 19 C-35 17.68 -35 16.36 -35 15 C-39.95 15 -44.9 15 -50 15 C-50.33 16.32 -50.66 17.64 -51 19 C-50.67 16.69 -50.34 14.38 -50 12 C-49.35933594 11.74605469 -48.71867187 11.49210937 -48.05859375 11.23046875 C-42.15267002 8.88125649 -42.15267002 8.88125649 -36.3125 6.375 C-32.91080214 4.96297447 -29.55582073 3.95245198 -26 3 C-24.865625 2.649375 -23.73125 2.29875 -22.5625 1.9375 C-15.01625411 -0.04835418 -7.75546657 -0.12830735 0 0 Z M-6 10 C-4 11 -4 11 -4 11 Z " fill="#1A4823" transform="translate(102,85)"/>
<path d="M0 0 C0.33 0 0.66 0 1 0 C1 1.65 1 3.3 1 5 C1.66 5 2.32 5 3 5 C3.33 3.68 3.66 2.36 4 1 C4.01417969 1.67804688 4.02835938 2.35609375 4.04296875 3.0546875 C4.53590449 12.6735958 7.53669526 20.6684173 14.7421875 27.28125 C33.39741383 41.48246035 55.60140851 45.59267205 78.5 45.1875 C80.01691347 45.17239259 81.53384186 45.15871513 83.05078125 45.14648438 C86.70084086 45.11403454 90.35031777 45.06260451 94 45 C94 44.67 94 44.34 94 44 C95.70542969 43.94392578 95.70542969 43.94392578 97.4453125 43.88671875 C109.4697379 43.40684009 120.54952393 41.95967062 132 38 C132 38.99 132 39.98 132 41 C131.34 41 130.68 41 130 41 C129.979375 41.5775 129.95875 42.155 129.9375 42.75 C128.47352904 46.26353031 125.36617544 47.58859179 122 49 C118.29564454 49.95062102 114.81692973 50.13473707 111 50.125 C109.4840625 50.12886719 109.4840625 50.12886719 107.9375 50.1328125 C105 50 105 50 102.84985352 49.48901367 C99.04240855 48.83568443 95.31056573 48.9553789 91.46484375 49.04296875 C89.76019356 49.06888639 88.05552041 49.09332731 86.35083008 49.11645508 C85.46553619 49.12899323 84.58024231 49.14153137 83.66812134 49.15444946 C54.17811824 49.5113867 54.17811824 49.5113867 40 45 C38.79730469 44.62617188 37.59460938 44.25234375 36.35546875 43.8671875 C23.03308733 39.18341662 9.18399001 31.6101797 2.4375 18.625 C0.55435259 13.8761935 -0.12341251 10.36665072 -0.0625 5.25 C-0.05347656 4.26515625 -0.04445313 3.2803125 -0.03515625 2.265625 C-0.02355469 1.51796875 -0.01195313 0.7703125 0 0 Z " fill="#A1C83E" transform="translate(30,107)"/>
<path d="M0 0 C4.37851608 -0.04587502 8.75620083 -0.08570968 13.13476562 -0.10986328 C14.6247032 -0.11993043 16.11462097 -0.13358518 17.60449219 -0.15087891 C19.74419028 -0.17509653 21.88362753 -0.18647564 24.0234375 -0.1953125 C25.31169434 -0.20578613 26.59995117 -0.21625977 27.92724609 -0.22705078 C31 0 31 0 33 2 C33.1953125 4.6015625 33.1953125 4.6015625 33.125 7.625 C33.10695312 8.62789062 33.08890625 9.63078125 33.0703125 10.6640625 C33.04710937 11.43492188 33.02390625 12.20578125 33 13 C31.35 13 29.7 13 28 13 C28 9.7 28 6.4 28 3 C26.68 3 25.36 3 24 3 C24 6.63 24 10.26 24 14 C22.35 14 20.7 14 19 14 C19 10.37 19 6.74 19 3 C17.68 3 16.36 3 15 3 C15 6.3 15 9.6 15 13 C13.35 13 11.7 13 10 13 C10 9.7 10 6.4 10 3 C8.68 3.33 7.36 3.66 6 4 C5.67 7.3 5.34 10.6 5 14 C3.35 14 1.7 14 0 14 C0 9.38 0 4.76 0 0 Z " fill="#CFD59D" transform="translate(82,106)"/>
<path d="M0 0 C17.8235333 3.32303163 34.07044776 11.14227888 45 26 C49.40305981 34.08586601 50.38263366 41.82819547 47.875 50.6875 C46.1878319 55.26812063 43.40970329 58.56822743 40 62 C39.01 61.34 38.02 60.68 37 60 C37.42152344 59.38511719 37.84304687 58.77023438 38.27734375 58.13671875 C38.82519531 57.32847656 39.37304688 56.52023438 39.9375 55.6875 C40.48277344 54.88699219 41.02804688 54.08648437 41.58984375 53.26171875 C45.20586973 47.46205381 44.53993594 40.59597422 44 34 C42.85543919 30.23768131 41.23110108 27.18996644 38.36328125 24.41796875 C37 23 37 23 37 21 C36.43023437 20.73703125 35.86046875 20.4740625 35.2734375 20.203125 C32.84595236 18.91847651 30.81323423 17.40797952 28.625 15.75 C21.18291396 10.46567855 12.76793363 7.28561255 4.1875 4.3125 C2.6096875 3.6628125 2.6096875 3.6628125 1 3 C0.67 2.01 0.34 1.02 0 0 Z " fill="#D4D7B8" transform="translate(134,71)"/>
<path d="M0 0 C0.33 0 0.66 0 1 0 C1 1.65 1 3.3 1 5 C1.66 5 2.32 5 3 5 C3.33 3.68 3.66 2.36 4 1 C4.01417969 1.67804688 4.02835938 2.35609375 4.04296875 3.0546875 C4.53590449 12.6735958 7.53669526 20.6684173 14.7421875 27.28125 C28.45844802 37.72269399 44.20872903 42.31775801 61 45 C60.67 45.99 60.34 46.98 60 48 C54.85726237 48.1796299 50.26802004 47.60616816 45.3125 46.3125 C44.61552002 46.13243408 43.91854004 45.95236816 43.20043945 45.7668457 C28.14183247 41.72647906 12.26844503 34.39595537 3.58984375 20.7890625 C0.82298733 15.45369062 -0.133234 11.19165631 -0.0625 5.25 C-0.05347656 4.26515625 -0.04445313 3.2803125 -0.03515625 2.265625 C-0.02355469 1.51796875 -0.01195313 0.7703125 0 0 Z " fill="#AABA8D" transform="translate(30,107)"/>
<path d="M0 0 C2.5 0.125 2.5 0.125 3.5 1.125 C3.54080783 3.12458364 3.54254356 5.12545254 3.5 7.125 C6.8 7.125 10.1 7.125 13.5 7.125 C13.5 8.115 13.5 9.105 13.5 10.125 C11.85 10.455 10.2 10.785 8.5 11.125 C10.48 12.115 12.46 13.105 14.5 14.125 C14.1875 16.5 14.1875 16.5 13.5 19.125 C10.04337669 21.42941554 8.55142119 21.38360135 4.5 21.125 C3.84 20.795 3.18 20.465 2.5 20.125 C2.83 19.135 3.16 18.145 3.5 17.125 C5.48 17.455 7.46 17.785 9.5 18.125 C8.65318223 15.86947332 8.65318223 15.86947332 6.0625 15.1875 C3.5 14.125 3.5 14.125 1.5 11.125 C0.51 11.785 -0.48 12.445 -1.5 13.125 C-1.83 12.135 -2.16 11.145 -2.5 10.125 C-4.15 10.455 -5.8 10.785 -7.5 11.125 C-7.83 14.425 -8.16 17.725 -8.5 21.125 C-10.15 21.125 -11.8 21.125 -13.5 21.125 C-13.5 16.505 -13.5 11.885 -13.5 7.125 C-11.52 7.125 -9.54 7.125 -7.5 7.125 C-6.51 6.795 -5.52 6.465 -4.5 6.125 C-4.355625 5.320625 -4.21125 4.51625 -4.0625 3.6875 C-3.2891492 0.16445746 -3.2891492 0.16445746 0 0 Z " fill="#84AE3D" transform="translate(145.5,98.875)"/>
<path d="M0 0 C1.88290489 0.01061211 1.88290489 0.01061211 3.80384827 0.0214386 C7.12042914 0.04460746 10.43524894 0.08942008 13.75134277 0.1449585 C17.14331956 0.19636442 20.53547925 0.21899774 23.92773438 0.24414062 C30.56819007 0.29915651 37.20782162 0.38274574 43.84765625 0.48828125 C43.84765625 0.81828125 43.84765625 1.14828125 43.84765625 1.48828125 C47.80765625 1.48828125 51.76765625 1.48828125 55.84765625 1.48828125 C55.84765625 2.14828125 55.84765625 2.80828125 55.84765625 3.48828125 C56.83765625 3.98328125 56.83765625 3.98328125 57.84765625 4.48828125 C56.88166504 4.4725708 55.91567383 4.45686035 54.92041016 4.44067383 C29.70797467 3.8400669 29.70797467 3.8400669 4.84765625 7.48828125 C4.84765625 6.82828125 4.84765625 6.16828125 4.84765625 5.48828125 C0.22765625 5.48828125 -4.39234375 5.48828125 -9.15234375 5.48828125 C-8.82234375 4.49828125 -8.49234375 3.50828125 -8.15234375 2.48828125 C-8.72984375 2.96265625 -9.30734375 3.43703125 -9.90234375 3.92578125 C-12.15234375 5.48828125 -12.15234375 5.48828125 -14.15234375 5.92578125 C-16.91505841 6.70279475 -18.18744032 8.45788104 -20.15234375 10.48828125 C-20.81234375 10.48828125 -21.47234375 10.48828125 -22.15234375 10.48828125 C-22.48234375 11.47828125 -22.81234375 12.46828125 -23.15234375 13.48828125 C-24.14234375 13.81828125 -25.13234375 14.14828125 -26.15234375 14.48828125 C-26.81234375 13.82828125 -27.47234375 13.16828125 -28.15234375 12.48828125 C-26.9687111 11.42147468 -25.78017505 10.36010835 -24.58984375 9.30078125 C-23.92855469 8.70910156 -23.26726563 8.11742188 -22.5859375 7.5078125 C-21.78285156 6.84136719 -20.97976562 6.17492187 -20.15234375 5.48828125 C-19.21841797 4.63169922 -18.28449219 3.77511719 -17.32226562 2.89257812 C-12.05122423 -0.82315514 -6.20828914 -0.13233409 0 0 Z " fill="#5F834C" transform="translate(68.15234375,81.51171875)"/>
<path d="M0 0 C1.49080078 0.02707031 1.49080078 0.02707031 3.01171875 0.0546875 C3.77097656 0.07789062 4.53023437 0.10109375 5.3125 0.125 C4.9825 2.435 4.6525 4.745 4.3125 7.125 C5.3025 7.455 6.2925 7.785 7.3125 8.125 C7.3125 8.785 7.3125 9.445 7.3125 10.125 C7.9725 9.135 8.6325 8.145 9.3125 7.125 C10.3025 7.455 11.2925 7.785 12.3125 8.125 C12.3125 8.785 12.3125 9.445 12.3125 10.125 C11.6525 10.125 10.9925 10.125 10.3125 10.125 C9.9825 10.785 9.6525 11.445 9.3125 12.125 C9.9725 12.455 10.6325 12.785 11.3125 13.125 C9.3325 13.125 7.3525 13.125 5.3125 13.125 C4.9825 12.135 4.6525 11.145 4.3125 10.125 C3.3225 11.115 2.3325 12.105 1.3125 13.125 C1.9725 9.495 2.6325 5.865 3.3125 2.125 C0.14972728 3.70638636 -0.11843689 6.45096051 -1.3125 9.6875 C-1.75851563 10.88503906 -2.20453125 12.08257812 -2.6640625 13.31640625 C-3.00179687 14.24324219 -3.33953125 15.17007813 -3.6875 16.125 C-1.7075 16.125 0.2725 16.125 2.3125 16.125 C1.9825 16.785 1.6525 17.445 1.3125 18.125 C-1.43776417 18.17904449 -4.18696203 18.21869306 -6.9375 18.25 C-7.71480469 18.26675781 -8.49210937 18.28351563 -9.29296875 18.30078125 C-10.04707031 18.30722656 -10.80117187 18.31367187 -11.578125 18.3203125 C-12.26938477 18.33078613 -12.96064453 18.34125977 -13.67285156 18.35205078 C-15.6875 18.125 -15.6875 18.125 -19.6875 16.125 C-16.3875 15.795 -13.0875 15.465 -9.6875 15.125 C-9.6875 13.475 -9.6875 11.825 -9.6875 10.125 C-12.9875 9.795 -16.2875 9.465 -19.6875 9.125 C-19.6875 8.465 -19.6875 7.805 -19.6875 7.125 C-15.3975 7.125 -11.1075 7.125 -6.6875 7.125 C-7.3475 5.475 -8.0075 3.825 -8.6875 2.125 C-5.26655758 -0.15562828 -4.00562778 -0.09425007 0 0 Z " fill="#345F37" transform="translate(101.6875,88.875)"/>
<path d="M0 0 C4.62 0 9.24 0 14 0 C14 1.32 14 2.64 14 4 C11.03 4 8.06 4 5 4 C5 5.32 5 6.64 5 8 C7.64 8 10.28 8 13 8 C13 9.32 13 10.64 13 12 C10.36 12 7.72 12 5 12 C5 14.31 5 16.62 5 19 C3.35 19 1.7 19 0 19 C0 12.73 0 6.46 0 0 Z " fill="#C3CE9C" transform="translate(53,100)"/>
<path d="M0 0 C0 3.86695678 -1.41909971 6.5088452 -3 10 C0.465 9.505 0.465 9.505 4 9 C1.35807664 11.75574772 -1.33470234 14.03448417 -4.4375 16.25 C-12.00058389 22.09928163 -14.70556985 28.896895 -17 38 C-17.66 38 -18.32 38 -19 38 C-19.83260181 29.67398193 -17.37871447 24.05170644 -13 17 C-11.37446717 15.29319053 -9.70884005 13.62339805 -8 12 C-6.35417046 9.44753484 -4.83230372 6.84735246 -3.33203125 4.20703125 C-2 2 -2 2 0 0 Z " fill="#E4E9CA" transform="translate(50,74)"/>
<path d="M0 0 C2.1796875 1.16015625 2.1796875 1.16015625 4 3 C4.53965062 6.72898579 4.17817802 10.21371706 4 14 C-0.29 14 -4.58 14 -9 14 C-9.33 12.35 -9.66 10.7 -10 9 C-6.5647952 6.70986347 -5.014669 6.82157027 -1 7 C-1 6.01 -1 5.02 -1 4 C-3.31 4.33 -5.62 4.66 -8 5 C-8 3.68 -8 2.36 -8 1 C-5.19084526 -0.40457737 -3.11189466 -0.24895157 0 0 Z " fill="#CDD7A0" transform="translate(76,105)"/>
<path d="M0 0 C1.32 0 2.64 0 4 0 C4 3.3 4 6.6 4 10 C5.65 10 7.3 10 9 10 C9 6.7 9 3.4 9 0 C9.33 0 9.66 0 10 0 C10 3.63 10 7.26 10 11 C8.35 11.33 6.7 11.66 5 12 C5 12.99 5 13.98 5 15 C4.01 15 3.02 15 2 15 C2.185625 15.598125 2.37125 16.19625 2.5625 16.8125 C3 19 3 19 2 22 C1.34 22 0.68 22 0 22 C0 21.34 0 20.68 0 20 C-1.98 20.66 -3.96 21.32 -6 22 C-5.505 17.545 -5.505 17.545 -5 13 C-4.01 13.33 -3.02 13.66 -2 14 C-1.93941406 13.07316406 -1.87882812 12.14632812 -1.81640625 11.19140625 C-1.73261719 9.99386719 -1.64882812 8.79632813 -1.5625 7.5625 C-1.48128906 6.36753906 -1.40007812 5.17257813 -1.31640625 3.94140625 C-1 1 -1 1 0 0 Z " fill="#275A2E" transform="translate(88,109)"/>
<path d="M0 0 C1.17369141 -0.02513672 1.17369141 -0.02513672 2.37109375 -0.05078125 C4.5625 0.3125 4.5625 0.3125 6.34765625 1.58203125 C7.5625 3.3125 7.5625 3.3125 7.5625 7.3125 C4.2625 7.3125 0.9625 7.3125 -2.4375 7.3125 C-2.1075 7.9725 -1.7775 8.6325 -1.4375 9.3125 C0.45783342 9.77773063 0.45783342 9.77773063 2.625 9.9375 C3.924375 10.06125 5.22375 10.185 6.5625 10.3125 C6.2325 11.3025 5.9025 12.2925 5.5625 13.3125 C3.9598218 13.42074843 2.35504252 13.49820645 0.75 13.5625 C-0.14332031 13.60890625 -1.03664063 13.6553125 -1.95703125 13.703125 C-4.4375 13.3125 -4.4375 13.3125 -6.2734375 11.5234375 C-8.01489985 8.21582781 -7.29119193 5.85860494 -6.4375 2.3125 C-4.02263057 -0.10236943 -3.31042211 0.0163075 0 0 Z " fill="#C8D39E" transform="translate(123.4375,105.6875)"/>
<path d="M0 0 C0.33 0 0.66 0 1 0 C1 1.65 1 3.3 1 5 C1.66 5 2.32 5 3 5 C3.33 3.68 3.66 2.36 4 1 C4.01417969 1.67804688 4.02835938 2.35609375 4.04296875 3.0546875 C4.5414791 12.782376 7.33542238 19.63425873 14.3125 26.5 C15.00988281 27.1290625 15.70726562 27.758125 16.42578125 28.40625 C18 30 18 30 18 32 C12.05972423 30.69603703 8.70913704 27.61841577 5 23 C1.38938445 17.1599381 -0.1443361 12.12423243 -0.0625 5.25 C-0.05347656 4.26515625 -0.04445313 3.2803125 -0.03515625 2.265625 C-0.02355469 1.51796875 -0.01195313 0.7703125 0 0 Z " fill="#C2CEA2" transform="translate(30,107)"/>
<path d="M0 0 C0 0.66 0 1.32 0 2 C0.99 2.495 0.99 2.495 2 3 C1.03400879 2.98428955 0.06801758 2.9685791 -0.92724609 2.95239258 C-26.13968158 2.35178565 -26.13968158 2.35178565 -51 6 C-51 5.34 -51 4.68 -51 4 C-55.62 4 -60.24 4 -65 4 C-64.67 3.01 -64.34 2.02 -64 1 C-55.95074832 0.86942677 -47.90149387 0.73902649 -39.85223579 0.60884857 C-36.11486804 0.54839992 -32.37750129 0.48789112 -28.64013672 0.42724609 C-25.03510638 0.3687506 -21.43007355 0.3104115 -17.82503891 0.25218201 C-16.44789413 0.22991027 -15.07075026 0.20758166 -13.69360733 0.18519592 C-11.76855965 0.15391348 -9.84350842 0.12284987 -7.91845703 0.09179688 C-6.27298386 0.06514954 -6.27298386 0.06514954 -4.5942688 0.03796387 C-3.06295754 0.01555505 -1.53147522 0 0 0 Z " fill="#4C7156" transform="translate(124,83)"/>
<path d="M0 0 C0 0.33 0 0.66 0 1 C-1.18142578 0.89171875 -1.18142578 0.89171875 -2.38671875 0.78125 C-15.37305081 -0.3252777 -28.03229978 -0.00441385 -41 1 C-41.33 2.32 -41.66 3.64 -42 5 C-43.11375 5.12375 -44.2275 5.2475 -45.375 5.375 C-49.03103677 5.6465813 -49.03103677 5.6465813 -51 8 C-52.65438613 8.69658363 -54.32254318 9.36096883 -56 10 C-57.34050052 10.65213539 -58.67661368 11.31379969 -60 12 C-53.64490205 2.97886096 -41.90483573 -0.68834515 -31.4296875 -2.56640625 C-20.43600431 -3.95626825 -10.68482694 -2.48278136 0 0 Z " fill="#AFC769" transform="translate(114,59)"/>
<path d="M0 0 C2.32495277 0.38749213 4.65851268 0.72982839 7 1 C6.814375 1.763125 6.62875 2.52625 6.4375 3.3125 C5.77180827 6.08967375 5.77180827 6.08967375 7 9 C5.68 8.34 4.36 7.68 3 7 C2.67 7.66 2.34 8.32 2 9 C1.01 9 0.02 9 -1 9 C-1 6.69 -1 4.38 -1 2 C-2.65 2.33 -4.3 2.66 -6 3 C-6.33 4.98 -6.66 6.96 -7 9 C-7.66 9 -8.32 9 -9 9 C-9.33 8.34 -9.66 7.68 -10 7 C-10.33 7.66 -10.66 8.32 -11 9 C-11.99 9 -12.98 9 -14 9 C-14 6.36 -14 3.72 -14 1 C-12.02 1 -10.04 1 -8 1 C-8 0.34 -8 -0.32 -8 -1 C-4.45955307 -2.26444533 -3.24915871 -1.67099591 0 0 Z " fill="#336536" transform="translate(110,122)"/>
<path d="M0 0 C1.23556641 0.01740234 1.23556641 0.01740234 2.49609375 0.03515625 C3.32238281 0.04417969 4.14867187 0.05320312 5 0.0625 C5.63808594 0.07410156 6.27617187 0.08570312 6.93359375 0.09765625 C6.93359375 1.08765625 6.93359375 2.07765625 6.93359375 3.09765625 C5.28359375 3.42765625 3.63359375 3.75765625 1.93359375 4.09765625 C3.91359375 5.08765625 5.89359375 6.07765625 7.93359375 7.09765625 C7.62109375 9.47265625 7.62109375 9.47265625 6.93359375 12.09765625 C3.47697044 14.40207179 1.98501494 14.3562576 -2.06640625 14.09765625 C-2.72640625 13.76765625 -3.38640625 13.43765625 -4.06640625 13.09765625 C-3.73640625 12.10765625 -3.40640625 11.11765625 -3.06640625 10.09765625 C-0.09640625 10.59265625 -0.09640625 10.59265625 2.93359375 11.09765625 C1.5416346 8.31373795 -0.22216404 8.11866628 -3.06640625 7.09765625 C-3.10894981 5.09810879 -3.10721408 3.09723989 -3.06640625 1.09765625 C-2.06640625 0.09765625 -2.06640625 0.09765625 0 0 Z " fill="#CED49D" transform="translate(152.06640625,105.90234375)"/>
<path d="M0 0 C12.54 0 25.08 0 38 0 C34.89720519 3.10279481 31.87679692 2.97083824 27.58666992 3.11352539 C26.31412354 3.10828857 25.04157715 3.10305176 23.73046875 3.09765625 C23.04946609 3.0962413 22.36846344 3.09482635 21.66682434 3.09336853 C19.50700353 3.08780298 17.34728911 3.07525703 15.1875 3.0625 C13.71679838 3.05748054 12.24609512 3.05291841 10.77539062 3.04882812 C7.1835596 3.03784488 3.5917902 3.02060422 0 3 C0 2.01 0 1.02 0 0 Z " fill="#B9C496" transform="translate(90,153)"/>
<path d="M0 0 C3.63 0 7.26 0 11 0 C11 4.29 11 8.58 11 13 C10.67 13 10.34 13 10 13 C10 9.7 10 6.4 10 3 C8.68 3.33 7.36 3.66 6 4 C5.67 7.3 5.34 10.6 5 14 C3.35 14 1.7 14 0 14 C0 9.38 0 4.76 0 0 Z " fill="#BCC792" transform="translate(82,106)"/>
<path d="M0 0 C17.49679076 5.99358151 17.49679076 5.99358151 21 13 C20.01 13.33 19.02 13.66 18 14 C18 13.34 18 12.68 18 12 C17.34 12 16.68 12 16 12 C16 11.34 16 10.68 16 10 C15.01 9.67 14.02 9.34 13 9 C11 8.33333333 9 7.66666667 7 7 C6.67 7.66 6.34 8.32 6 9 C5.01 9 4.02 9 3 9 C3 9.66 3 10.32 3 11 C0.31025046 12.70350804 -1.43675482 13.11780853 -4.55859375 12.46484375 C-7.06361567 11.7009009 -9.53696365 10.88956264 -12 10 C-12 9.67 -12 9.34 -12 9 C-8.66666667 9 -5.33333333 9 -2 9 C0.00309329 8.68578929 2.00371336 8.3548954 4 8 C4 6.68 4 5.36 4 4 C2.68 3.34 1.36 2.68 0 2 C0 1.34 0 0.68 0 0 Z " fill="#5B7456" transform="translate(147,78)"/>
<path d="M0 0 C10.62599405 1.98111753 20.46728036 5.95326607 30 11 C29.34 12.32 28.68 13.64 28 15 C27.12859375 14.54109375 26.2571875 14.0821875 25.359375 13.609375 C18.46652498 10.04132291 11.86218585 7.06420284 4.328125 5.01953125 C2 4 2 4 0.671875 1.88671875 C0.45015625 1.26410156 0.2284375 0.64148438 0 0 Z " fill="#BDBF96" transform="translate(134,71)"/>
<path d="M0 0 C0.33 0 0.66 0 1 0 C1.49993093 8.86914499 0.71346417 16.11526559 -5.1875 23.0625 C-6.11173488 24.05419728 -7.04453734 25.03835312 -8 26 C-8.99 25.34 -9.98 24.68 -11 24 C-10.36771484 23.07767578 -10.36771484 23.07767578 -9.72265625 22.13671875 C-9.17480469 21.32847656 -8.62695312 20.52023438 -8.0625 19.6875 C-7.51722656 18.88699219 -6.97195312 18.08648437 -6.41015625 17.26171875 C-4.16305157 13.65763673 -3.78005104 10.47204833 -3.4375 6.3125 C-3.35371094 5.31863281 -3.26992187 4.32476562 -3.18359375 3.30078125 C-3.12300781 2.54152344 -3.06242188 1.78226562 -3 1 C-2.34 2.32 -1.68 3.64 -1 5 C-0.67 3.35 -0.34 1.7 0 0 Z " fill="#C3CBA1" transform="translate(182,107)"/>
<path d="M0 0 C3.3 0 6.6 0 10 0 C10 0.99 10 1.98 10 3 C8.68 3.33 7.36 3.66 6 4 C5.67 7.3 5.34 10.6 5 14 C3.35 14 1.7 14 0 14 C0 9.38 0 4.76 0 0 Z " fill="#BDCF9B" transform="translate(132,106)"/>
<path d="M0 0 C0.66 0 1.32 0 2 0 C1.67 2.97 1.34 5.94 1 9 C1.99 8.34 2.98 7.68 4 7 C4 8.32 4 9.64 4 11 C4.99 11 5.98 11 7 11 C6.67 11.99 6.34 12.98 6 14 C3.4375 15.1875 3.4375 15.1875 1 16 C1 15.34 1 14.68 1 14 C-0.98 14 -2.96 14 -5 14 C-4.34580901 8.93001981 -2.1453591 4.58009223 0 0 Z " fill="#1F4C24" transform="translate(103,91)"/>
<path d="M0 0 C4.29 0 8.58 0 13 0 C13 0.99 13 1.98 13 3 C9.7 3 6.4 3 3 3 C3 7.62 3 12.24 3 17 C2.01 17 1.02 17 0 17 C0 11.39 0 5.78 0 0 Z " fill="#DEDDA4" transform="translate(54,101)"/>
<path d="M0 0 C2.43853057 1.28975172 4.87584412 2.58171525 7.3125 3.875 C8.34793945 4.42220703 8.34793945 4.42220703 9.40429688 4.98046875 C10.40493164 5.51220703 10.40493164 5.51220703 11.42578125 6.0546875 C12.03848877 6.37937012 12.65119629 6.70405273 13.2824707 7.03857422 C14.90258648 7.94547058 16.45515434 8.9701029 18 10 C18 10.99 18 11.98 18 13 C10.31418369 10.82235205 3.63435658 7.46957464 -3 3 C-3.33 2.34 -3.66 1.68 -4 1 C-2.68 1.33 -1.36 1.66 0 2 C0 1.34 0 0.68 0 0 Z " fill="#6F7D4A" transform="translate(48,137)"/>
<path d="M0 0 C0.57234375 0.23589844 1.1446875 0.47179687 1.734375 0.71484375 C-2.20051294 7.15269295 -6.17903456 13.13200059 -11.265625 18.71484375 C-11.595625 17.72484375 -11.925625 16.73484375 -12.265625 15.71484375 C-11.605625 15.71484375 -10.945625 15.71484375 -10.265625 15.71484375 C-10.265625 14.39484375 -10.265625 13.07484375 -10.265625 11.71484375 C-8.265625 9.46484375 -8.265625 9.46484375 -6.265625 7.71484375 C-7.585625 7.38484375 -8.905625 7.05484375 -10.265625 6.71484375 C-9.03009224 5.51229851 -7.77660161 4.32818143 -6.515625 3.15234375 C-5.81953125 2.49105469 -5.1234375 1.82976562 -4.40625 1.1484375 C-2.265625 -0.28515625 -2.265625 -0.28515625 0 0 Z " fill="#8BAA52" transform="translate(172.265625,132.28515625)"/>
<path d="M0 0 C2.0625 0.4375 2.0625 0.4375 4 1 C3.0409375 1.8971875 3.0409375 1.8971875 2.0625 2.8125 C-0.20310389 4.90810337 -0.20310389 4.90810337 -1 8 C-4.34237636 9.11412545 -6.87011565 9.12937354 -10.390625 9.1328125 C-11.65777344 9.13410156 -12.92492187 9.13539063 -14.23046875 9.13671875 C-14.89095215 9.13462402 -15.55143555 9.1325293 -16.23193359 9.13037109 C-18.22883519 9.12505633 -20.22575627 9.13082819 -22.22265625 9.13671875 C-23.49496094 9.13542969 -24.76726562 9.13414062 -26.078125 9.1328125 C-27.23731445 9.13168457 -28.39650391 9.13055664 -29.59082031 9.12939453 C-33.12018071 8.99543857 -36.51471037 8.55868938 -40 8 C-40 7.67 -40 7.34 -40 7 C-39.09233887 7.00523682 -38.18467773 7.01047363 -37.24951172 7.01586914 C-33.86132158 7.03297684 -30.47317779 7.04548213 -27.08496094 7.05493164 C-25.62238843 7.05994045 -24.15982089 7.06674938 -22.69726562 7.07543945 C-20.58722709 7.08765698 -18.47725513 7.09326295 -16.3671875 7.09765625 C-15.09987793 7.10289307 -13.83256836 7.10812988 -12.52685547 7.11352539 C-9.22167046 7.00713532 -6.21055751 6.79621109 -3 6 C-1.61141128 3.57114212 -1.61141128 3.57114212 -1 1 C-0.67 0.67 -0.34 0.34 0 0 Z " fill="#2F652D" transform="translate(124,144)"/>
<path d="M0 0 C0.33 0.66 0.66 1.32 1 2 C1.66 2.33 2.32 2.66 3 3 C3 3.66 3 4.32 3 5 C3.66 5.66 4.32 6.32 5 7 C2.69 7.33 0.38 7.66 -2 8 C-2 7.34 -2 6.68 -2 6 C-4.475 5.505 -4.475 5.505 -7 5 C-6.67 5.99 -6.34 6.98 -6 8 C-6.63808594 8.20496094 -7.27617188 8.40992187 -7.93359375 8.62109375 C-8.75988281 8.89050781 -9.58617188 9.15992187 -10.4375 9.4375 C-11.67306641 9.83775391 -11.67306641 9.83775391 -12.93359375 10.24609375 C-14.96219588 10.82155494 -14.96219588 10.82155494 -16 12 C-17.66617115 12.04063832 -19.33388095 12.042721 -21 12 C-17.99034289 9.99356193 -14.9261416 8.10386302 -11.83984375 6.21875 C-9.86708405 4.9997531 -9.86708405 4.9997531 -8 3 C-5.31160615 2.73008094 -2.70858064 2.91262643 0 3 C0 2.01 0 1.02 0 0 Z " fill="#698760" transform="translate(133,70)"/>
<path d="M0 0 C1.32 0.33 2.64 0.66 4 1 C4 4.63 4 8.26 4 12 C-0.29 12 -4.58 12 -9 12 C-8.34 10.68 -7.68 9.36 -7 8 C-6.34 8 -5.68 8 -5 8 C-5 8.66 -5 9.32 -5 10 C-3.35 10 -1.7 10 0 10 C0 6.7 0 3.4 0 0 Z " fill="#D8DEA6" transform="translate(76,107)"/>
<path d="M0 0 C0.99 0 1.98 0 3 0 C3 3.63 3 7.26 3 11 C4.65 11 6.3 11 8 11 C6.68 11.33 5.36 11.66 4 12 C4 12.66 4 13.32 4 14 C-0.455 14.495 -0.455 14.495 -5 15 C-5 14.01 -5 13.02 -5 12 C-3.35 11.67 -1.7 11.34 0 11 C0 7.37 0 3.74 0 0 Z " fill="#175428" transform="translate(98,109)"/>
<path d="M0 0 C1.33332095 2.6666419 0.67102033 4.16680303 0 7 C0.99 7.33 1.98 7.66 3 8 C3 8.66 3 9.32 3 10 C3.66 9.01 4.32 8.02 5 7 C5.99 7.33 6.98 7.66 8 8 C8 8.66 8 9.32 8 10 C7.34 10 6.68 10 6 10 C5.67 10.66 5.34 11.32 5 12 C5.66 12.33 6.32 12.66 7 13 C5.02 13 3.04 13 1 13 C0.67 12.01 0.34 11.02 0 10 C-0.99 10.99 -1.98 11.98 -3 13 C-2.34 9.37 -1.68 5.74 -1 2 C-4.24732932 3.62366466 -4.70155136 6.75387839 -6 10 C-7.60031344 6.79937313 -6.03173691 4.27728194 -5 1 C-3.35 0.67 -1.7 0.34 0 0 Z " fill="#84A77E" transform="translate(106,89)"/>
<path d="M0 0 C0 0.66 0 1.32 0 2 C-10.27378983 7.49528293 -20.94470257 6.94807932 -32 4 C-32 3.67 -32 3.34 -32 3 C-23.61988971 2.84607961 -15.35104207 3.31728707 -7 4 C-7 3.34 -7 2.68 -7 2 C-4.35261084 0.5393715 -3.10551666 0 0 0 Z " fill="#82A84B" transform="translate(158,151)"/>
<path d="M0 0 C-2.65636654 2.94097724 -4.23464224 4.05866056 -8 5 C-9.35308313 6.31328657 -10.68870078 7.64499081 -12 9 C-12.66 9 -13.32 9 -14 9 C-14.33 9.99 -14.66 10.98 -15 12 C-15.99 12.33 -16.98 12.66 -18 13 C-18.66 12.34 -19.32 11.68 -20 11 C-7.07962246 -0.67424976 -7.07962246 -0.67424976 0 0 Z " fill="#506F4D" transform="translate(60,83)"/>
<path d="M0 0 C-1.98 0.33 -3.96 0.66 -6 1 C-6.33 2.32 -6.66 3.64 -7 5 C-8.11375 5.12375 -9.2275 5.2475 -10.375 5.375 C-14.03103677 5.6465813 -14.03103677 5.6465813 -16 8 C-17.65438613 8.69658363 -19.32254318 9.36096883 -21 10 C-22.34050052 10.65213539 -23.67661368 11.31379969 -25 12 C-21.97832369 7.60758831 -18.68334748 5.44797298 -13.9375 3.25 C-13.31294922 2.94707031 -12.68839844 2.64414062 -12.04492188 2.33203125 C-4.3670784 -1.35530019 -4.3670784 -1.35530019 0 0 Z " fill="#B0CA64" transform="translate(79,59)"/>
<path d="M0 0 C2.31 0.33 4.62 0.66 7 1 C6.34 1.66 5.68 2.32 5 3 C4.53837573 5.43252661 4.53837573 5.43252661 4.375 8.125 C4.30023438 9.03507812 4.22546875 9.94515625 4.1484375 10.8828125 C4.09945312 11.58148438 4.05046875 12.28015625 4 13 C2.68 13 1.36 13 0 13 C0 8.71 0 4.42 0 0 Z " fill="#E1E2AB" transform="translate(93,106)"/>
<path d="M0 0 C0 3.86695678 -1.41909971 6.5088452 -3 10 C0.465 9.505 0.465 9.505 4 9 C1.24479785 11.95929119 -1.46627288 14.03681826 -5 16 C-6.68710359 9.25158562 -6.68710359 9.25158562 -4.73046875 5.6875 C-3.22438979 3.71231447 -1.67894251 1.82980401 0 0 Z " fill="#BDD090" transform="translate(50,74)"/>
<path d="M0 0 C0.99 0.66 1.98 1.32 3 2 C3 3.32 3 4.64 3 6 C-0.3 6 -3.6 6 -7 6 C-7.33 7.32 -7.66 8.64 -8 10 C-9.5625 8.75 -9.5625 8.75 -11 7 C-10.875 4.875 -10.875 4.875 -10 3 C-9.01 2.67 -8.02 2.34 -7 2 C-7 2.66 -7 3.32 -7 4 C-4.03 4.495 -4.03 4.495 -1 5 C-0.67 3.35 -0.34 1.7 0 0 Z " fill="#D1DDA9" transform="translate(128,107)"/>
<path d="M0 0 C1.4540625 0.0309375 1.4540625 0.0309375 2.9375 0.0625 C1.9475 1.5475 1.9475 1.5475 0.9375 3.0625 C0.54736284 5.0521995 0.20547351 7.05269869 -0.0625 9.0625 C-0.7225 9.0625 -1.3825 9.0625 -2.0625 9.0625 C-1.7325 10.7125 -1.4025 12.3625 -1.0625 14.0625 C-2.0525 14.0625 -3.0425 14.0625 -4.0625 14.0625 C-4.08935938 11.91673363 -4.10883088 9.77087355 -4.125 7.625 C-4.13660156 6.43003906 -4.14820313 5.23507813 -4.16015625 4.00390625 C-4.02995498 0.08224398 -4.02995498 0.08224398 0 0 Z " fill="#1C4422" transform="translate(38.0625,103.9375)"/>
<path d="M0 0 C-0.66 1.65 -1.32 3.3 -2 5 C-0.02 5 1.96 5 4 5 C3.67 5.66 3.34 6.32 3 7 C0.24973583 7.05404449 -2.49946203 7.09369306 -5.25 7.125 C-6.02730469 7.14175781 -6.80460937 7.15851563 -7.60546875 7.17578125 C-8.35957031 7.18222656 -9.11367187 7.18867187 -9.890625 7.1953125 C-10.58188477 7.20578613 -11.27314453 7.21625977 -11.98535156 7.22705078 C-14 7 -14 7 -18 5 C-14.7 4.67 -11.4 4.34 -8 4 C-8 3.01 -8 2.02 -8 1 C-2.25 -1.125 -2.25 -1.125 0 0 Z " fill="#466E43" transform="translate(100,100)"/>
<path d="M0 0 C1.32 0.33 2.64 0.66 4 1 C4 1.66 4 2.32 4 3 C4.66 3 5.32 3 6 3 C6.33 2.01 6.66 1.02 7 0 C7.99 0 8.98 0 10 0 C10 2.31 10 4.62 10 7 C9.34 7 8.68 7 8 7 C7.67 6.01 7.34 5.02 7 4 C6.67 4.66 6.34 5.32 6 6 C5.01 5.67 4.02 5.34 3 5 C2.67 5.66 2.34 6.32 2 7 C1.34 7 0.68 7 0 7 C0 4.69 0 2.38 0 0 Z " fill="#B6CB9B" transform="translate(66,124)"/>
<path d="M0 0 C0.90105469 0.01804687 1.80210938 0.03609375 2.73046875 0.0546875 C3.41753906 0.07789062 4.10460937 0.10109375 4.8125 0.125 C4.8125 0.455 4.8125 0.785 4.8125 1.125 C3.1625 1.125 1.5125 1.125 -0.1875 1.125 C-0.5175 3.435 -0.8475 5.745 -1.1875 8.125 C-1.8475 7.465 -2.5075 6.805 -3.1875 6.125 C-4.1775 6.455 -5.1675 6.785 -6.1875 7.125 C-6.8475 5.475 -7.5075 3.825 -8.1875 2.125 C-4.87379 -0.08414 -3.8428979 -0.09981553 0 0 Z " fill="#446941" transform="translate(101.1875,88.875)"/>
<path d="M0 0 C3.23648286 -0.35142196 4.58778715 -0.30933949 7.23828125 1.6796875 C7.92277344 2.40414062 8.60726562 3.12859375 9.3125 3.875 C10.00988281 4.59429687 10.70726562 5.31359375 11.42578125 6.0546875 C13 8 13 8 13 10 C7.10116191 8.7051331 3.79580613 5.48084806 0 1 C0 0.67 0 0.34 0 0 Z " fill="#959C6C" transform="translate(35,129)"/>
<path d="M0 0 C3.50367573 4.45922366 5.27675126 7.48345227 5.125 13.25 C5.10695312 14.14203125 5.08890625 15.0340625 5.0703125 15.953125 C5.03550781 16.96632813 5.03550781 16.96632813 5 18 C3 17 3 17 1.89453125 14.19921875 C1.53746094 13.04035156 1.18039063 11.88148437 0.8125 10.6875 C0.44769531 9.53636719 0.08289063 8.38523437 -0.29296875 7.19921875 C-0.95478247 4.20460307 -1.08640853 2.80251881 0 0 Z " fill="#CCD0A8" transform="translate(177,95)"/>
<path d="M0 0 C2.97 0 5.94 0 9 0 C9 0.99 9 1.98 9 3 C6.36 3.33 3.72 3.66 1 4 C1.33 6.31 1.66 8.62 2 11 C1.01 11.495 1.01 11.495 0 12 C0 8.04 0 4.08 0 0 Z " fill="#E2E1A5" transform="translate(133,106)"/>
<path d="M0 0 C0 0.99 0 1.98 0 3 C-1.32 3.33 -2.64 3.66 -4 4 C-1.525 4.99 -1.525 4.99 1 6 C-1.88087546 8.40072955 -4.56404834 10.47291037 -8 12 C-7.3902106 8.44289519 -6.72388873 5.18919414 -5 2 C-2.375 0.6875 -2.375 0.6875 0 0 Z " fill="#A0C14D" transform="translate(57,69)"/>
<path d="M0 0 C5.19578896 1.36080187 8.13611036 3.41210248 12 7 C12 7.33 12 7.66 12 8 C9.03 7.67 6.06 7.34 3 7 C3.33 6.01 3.66 5.02 4 4 C2.68 3.34 1.36 2.68 0 2 C0 1.34 0 0.68 0 0 Z " fill="#A5C54C" transform="translate(115,60)"/>
<path d="M0 0 C0.33 0 0.66 0 1 0 C1 1.65 1 3.3 1 5 C1.66 5 2.32 5 3 5 C3.33 3.68 3.66 2.36 4 1 C4 4.63 4 8.26 4 12 C3.34 12 2.68 12 2 12 C1.67 12.99 1.34 13.98 1 15 C-0.00109515 11.68929162 -0.10356134 8.69915231 -0.0625 5.25 C-0.05347656 4.26515625 -0.04445313 3.2803125 -0.03515625 2.265625 C-0.02355469 1.51796875 -0.01195313 0.7703125 0 0 Z " fill="#93A174" transform="translate(30,107)"/>
<path d="M0 0 C2.64 0 5.28 0 8 0 C8 0.99 8 1.98 8 3 C6.72125 3.2475 5.4425 3.495 4.125 3.75 C0.73252682 4.51990586 0.73252682 4.51990586 -1.5 7.125 C-1.665 7.74375 -1.83 8.3625 -2 9 C-2.33 8.01 -2.66 7.02 -3 6 C-3.66 6 -4.32 6 -5 6 C-5 5.34 -5 4.68 -5 4 C-3.68 4 -2.36 4 -1 4 C-0.67 2.68 -0.34 1.36 0 0 Z " fill="#2F5124" transform="translate(67,109)"/>
<path d="M0 0 C0.33 0.66 0.66 1.32 1 2 C1.99 2 2.98 2 4 2 C4 5.63 4 9.26 4 13 C2.68 13 1.36 13 0 13 C0 8.71 0 4.42 0 0 Z " fill="#E1E1AC" transform="translate(82,106)"/>
<path d="M0 0 C0.66 0 1.32 0 2 0 C1.814375 0.763125 1.62875 1.52625 1.4375 2.3125 C0.77180827 5.08967375 0.77180827 5.08967375 2 8 C0.68 7.34 -0.64 6.68 -2 6 C-2.33 6.66 -2.66 7.32 -3 8 C-3.66 8 -4.32 8 -5 8 C-5 5.69 -5 3.38 -5 1 C-3.68 1 -2.36 1 -1 1 C-0.67 0.67 -0.34 0.34 0 0 Z " fill="#B0CD98" transform="translate(115,123)"/>
<path d="M0 0 C0.33 0 0.66 0 1 0 C1.05437607 1.58294782 1.09296271 3.16644256 1.125 4.75 C1.14820313 5.63171875 1.17140625 6.5134375 1.1953125 7.421875 C0.99139502 10.1135858 0.36551721 11.69904974 -1 14 C-1 13.34 -1 12.68 -1 12 C-1.66 12 -2.32 12 -3 12 C-3 8.37 -3 4.74 -3 1 C-2.34 2.32 -1.68 3.64 -1 5 C-0.67 3.35 -0.34 1.7 0 0 Z " fill="#9AA476" transform="translate(182,107)"/>
<path d="M0 0 C4.95 0.99 4.95 0.99 10 2 C10 2.99 10 3.98 10 5 C10.66 5.33 11.32 5.66 12 6 C7.27536912 5.53680089 3.82942948 4.90108294 0 2 C0 1.34 0 0.68 0 0 Z " fill="#A1A97D" transform="translate(65,147)"/>
<path d="M0 0 C1.98 0 3.96 0 6 0 C6 2.31 6 4.62 6 7 C5.34 7 4.68 7 4 7 C3.67 6.34 3.34 5.68 3 5 C2.67 5.66 2.34 6.32 2 7 C1.34 7 0.68 7 0 7 C0 4.69 0 2.38 0 0 Z " fill="#B1C895" transform="translate(97,124)"/>
<path d="M0 0 C0.66 0 1.32 0 2 0 C2 0.66 2 1.32 2 2 C2.99 2.33 3.98 2.66 5 3 C3.875 4.5 3.875 4.5 2 6 C-1.09501208 6.25265405 -3.20129973 6.39935013 -6 5 C-5.67 4.01 -5.34 3.02 -5 2 C-2.03 2.495 -2.03 2.495 1 3 C0.67 2.01 0.34 1.02 0 0 Z " fill="#C0CD98" transform="translate(154,114)"/>
<path d="M0 0 C2.33944736 0.28730055 4.6739143 0.61936779 7 1 C7 1.66 7 2.32 7 3 C4.31025046 4.70350804 2.56324518 5.11780853 -0.55859375 4.46484375 C-3.06361567 3.7009009 -5.53696365 2.88956264 -8 2 C-8 1.67 -8 1.34 -8 1 C-6.865625 1.020625 -5.73125 1.04125 -4.5625 1.0625 C-1.18424326 1.41577477 -1.18424326 1.41577477 0 0 Z " fill="#416A4B" transform="translate(143,86)"/>
<path d="M0 0 C3.48670834 1.1094072 6.77484237 2.26337666 10 4 C9.34 5.32 8.68 6.64 8 8 C6.6589523 7.24266726 5.32730219 6.46867264 4 5.6875 C2.88625 5.04361328 2.88625 5.04361328 1.75 4.38671875 C1.1725 3.92910156 0.595 3.47148438 0 3 C0 2.01 0 1.02 0 0 Z " fill="#C7C8A8" transform="translate(154,78)"/>
<path d="M0 0 C3.72433382 1.2125738 7.37802806 2.50859979 11 4 C11 5.32 11 6.64 11 8 C8.69 7.34 6.38 6.68 4 6 C3.67 4.68 3.34 3.36 3 2 C1.68 1.67 0.36 1.34 -1 1 C-0.67 0.67 -0.34 0.34 0 0 Z " fill="#7C8656" transform="translate(55,142)"/>
<path d="M0 0 C0.99 0 1.98 0 3 0 C4.4606285 2.64738916 5 3.89448334 5 7 C4.34 7 3.68 7 3 7 C3 6.34 3 5.68 3 5 C1.02 5.66 -0.96 6.32 -3 7 C-1.125 1.125 -1.125 1.125 0 0 Z " fill="#B0C896" transform="translate(85,124)"/>
<path d="M0 0 C1.98 0.495 1.98 0.495 4 1 C4.76173392 5.3164922 5.16063604 8.74433453 4 13 C3.34 12.34 2.68 11.68 2 11 C1.01 11.66 0.02 12.32 -1 13 C-0.67 11.68 -0.34 10.36 0 9 C0.66 9 1.32 9 2 9 C1.34 6.03 0.68 3.06 0 0 Z " fill="#81A354" transform="translate(145,99)"/>
<path d="M0 0 C0 0.66 0 1.32 0 2 C0.66 2.33 1.32 2.66 2 3 C-12.85 2.505 -12.85 2.505 -28 2 C-28 1.67 -28 1.34 -28 1 C-23.7083573 0.83271225 -19.41668206 0.66627459 -15.125 0.5 C-13.90167969 0.45230469 -12.67835937 0.40460938 -11.41796875 0.35546875 C-9.66806641 0.28779297 -9.66806641 0.28779297 -7.8828125 0.21875 C-6.80402832 0.17685547 -5.72524414 0.13496094 -4.61376953 0.09179688 C-3.07648977 0.03780685 -1.53822755 0 0 0 Z " fill="#406645" transform="translate(124,83)"/>
<path d="M0 0 C3.3 0 6.6 0 10 0 C10 1.98 10 3.96 10 6 C9.34 5.67 8.68 5.34 8 5 C8.33 4.34 8.66 3.68 9 3 C6.36 3 3.72 3 1 3 C0.67 2.01 0.34 1.02 0 0 Z " fill="#426635" transform="translate(121,113)"/>
<path d="M0 0 C1.32 0 2.64 0 4 0 C4 0.66 4 1.32 4 2 C4.66 2 5.32 2 6 2 C6 2.66 6 3.32 6 4 C7.65 4.33 9.3 4.66 11 5 C11 5.66 11 6.32 11 7 C11.99 7.33 12.98 7.66 14 8 C13.01 8.495 13.01 8.495 12 9 C9.1796875 7.63671875 9.1796875 7.63671875 5.875 5.6875 C4.77929688 5.05199219 3.68359375 4.41648438 2.5546875 3.76171875 C1.71164063 3.18035156 0.86859375 2.59898437 0 2 C0 1.34 0 0.68 0 0 Z " fill="#285522" transform="translate(47,135)"/>
<path d="M0 0 C0.66 0 1.32 0 2 0 C3.7265625 2.1875 3.7265625 2.1875 5.625 5 C6.25664062 5.928125 6.88828125 6.85625 7.5390625 7.8125 C8.26222656 8.8953125 8.26222656 8.8953125 9 10 C8.67 10.66 8.34 11.32 8 12 C7.34 12 6.68 12 6 12 C5.7525 11.030625 5.505 10.06125 5.25 9.0625 C4.8375 8.051875 4.425 7.04125 4 6 C1.96756452 5.03122943 1.96756452 5.03122943 0 5 C0 3.35 0 1.7 0 0 Z " fill="#3E5D3A" transform="translate(169,92)"/>
<path d="M0 0 C1.32 0 2.64 0 4 0 C4.125 2.875 4.125 2.875 4 6 C3.34 6.66 2.68 7.32 2 8 C1.34 7.67 0.68 7.34 0 7 C-0.6875 4 -0.6875 4 -1 1 C-0.67 0.67 -0.34 0.34 0 0 Z " fill="#155A2A" transform="translate(104,124)"/>
<path d="M0 0 C0.99 0.33 1.98 0.66 3 1 C2.65978036 4.17538332 1.97533396 5.02276865 -0.4375 7.25 C-3 9 -3 9 -5 9 C-3.7508258 5.54074837 -2.32472205 2.85306797 0 0 Z " fill="#305431" transform="translate(40,95)"/>
<path d="M0 0 C2.46800047 1.15173355 4.04783565 2.04783565 6 4 C6.125 6.625 6.125 6.625 6 9 C5.34 9 4.68 9 4 9 C2.7109375 7.46875 2.7109375 7.46875 1.375 5.5 C0.92898437 4.8503125 0.48296875 4.200625 0.0234375 3.53125 C-0.31429687 3.0259375 -0.65203125 2.520625 -1 2 C-0.67 1.34 -0.34 0.68 0 0 Z " fill="#E2E6C9" transform="translate(171,90)"/>
<path d="M0 0 C0 0.33 0 0.66 0 1 C-5.83799592 2.69832609 -10.93107371 3.25287193 -17 3 C-17 2.34 -17 1.68 -17 1 C-11.29309366 0.00749455 -5.78591511 -0.10477512 0 0 Z " fill="#A6BE59" transform="translate(96,56)"/>
<path d="M0 0 C2.64 0.33 5.28 0.66 8 1 C8.33 2.65 8.66 4.3 9 6 C7.68 5.67 6.36 5.34 5 5 C5 4.34 5 3.68 5 3 C3.35 2.67 1.7 2.34 0 2 C0 1.34 0 0.68 0 0 Z " fill="#D8D7A6" transform="translate(151,111)"/>
<path d="M0 0 C0.99 0 1.98 0 3 0 C3 3.63 3 7.26 3 11 C4.65 11 6.3 11 8 11 C6.68 11.33 5.36 11.66 4 12 C4 12.66 4 13.32 4 14 C2.35 14 0.7 14 -1 14 C-0.67 13.34 -0.34 12.68 0 12 C0.66 12 1.32 12 2 12 C2 8.37 2 4.74 2 1 C1.34 0.67 0.68 0.34 0 0 Z " fill="#204F21" transform="translate(98,109)"/>
<path d="M0 0 C0.53625 0.268125 1.0725 0.53625 1.625 0.8125 C0.985625 1.080625 0.34625 1.34875 -0.3125 1.625 C-2.70631686 2.69917752 -2.70631686 2.69917752 -3.375 5.8125 C-4.365 6.1425 -5.355 6.4725 -6.375 6.8125 C-7.035 6.1525 -7.695 5.4925 -8.375 4.8125 C-2.95961538 -0.23365385 -2.95961538 -0.23365385 0 0 Z " fill="#476A45" transform="translate(48.375,89.1875)"/>
<path d="M0 0 C1.65 0 3.3 0 5 0 C4.814375 0.598125 4.62875 1.19625 4.4375 1.8125 C3.77906313 4.16408762 3.77906313 4.16408762 5 7 C3.35 7 1.7 7 0 7 C0 4.69 0 2.38 0 0 Z " fill="#B4CD9B" transform="translate(124,124)"/>
<path d="M0 0 C0 1.98 0 3.96 0 6 C-1.32 6 -2.64 6 -4 6 C-4 5.01 -4 4.02 -4 3 C-5.98 3 -7.96 3 -10 3 C-10 2.67 -10 2.34 -10 2 C-8.7090864 1.66376204 -7.41723903 1.33110751 -6.125 1 C-5.40570313 0.814375 -4.68640625 0.62875 -3.9453125 0.4375 C-2 0 -2 0 0 0 Z " fill="#194E24" transform="translate(160,118)"/>
<path d="M0 0 C0 0.66 0 1.32 0 2 C-2.76382738 4.45673545 -5.56433594 5.71162598 -9 7 C-10.34050052 7.65213539 -11.67661368 8.31379969 -13 9 C-10.03160376 4.72550941 -5.61996393 0 0 0 Z " fill="#C7D890" transform="translate(67,62)"/>
<path d="M0 0 C1.32 0 2.64 0 4 0 C3.67 1.98 3.34 3.96 3 6 C0.03 5.505 0.03 5.505 -3 5 C-2 2 -2 2 0 0 Z " fill="#939F66" transform="translate(124,106)"/>
<path d="M0 0 C0.66 0 1.32 0 2 0 C1.67 1.65 1.34 3.3 1 5 C0.01 5 -0.98 5 -2 5 C-2 5.66 -2 6.32 -2 7 C-1.01 7.33 -0.02 7.66 1 8 C-1.31 8 -3.62 8 -6 8 C-5.01 7.67 -4.02 7.34 -3 7 C-2.39938767 5.09821215 -2.39938767 5.09821215 -2 3 C-1.34 2.01 -0.68 1.02 0 0 Z " fill="#8BB24F" transform="translate(126,145)"/>
<path d="M0 0 C0.66 0.33 1.32 0.66 2 1 C1.34 3.97 0.68 6.94 0 10 C-0.66 10 -1.32 10 -2 10 C-2 7.03 -2 4.06 -2 1 C-1.34 0.67 -0.68 0.34 0 0 Z " fill="#C3CCA0" transform="translate(33,102)"/>
<path d="M0 0 C2.97 0 5.94 0 9 0 C8.67 0.99 8.34 1.98 8 3 C6.35 2.67 4.7 2.34 3 2 C3 2.66 3 3.32 3 4 C2.01 4 1.02 4 0 4 C0 2.68 0 1.36 0 0 Z " fill="#909D68" transform="translate(66,114)"/>
<path d="M0 0 C0.66 0 1.32 0 2 0 C2.93065133 2.60582371 3.14917407 3.64198224 2.0625 6.25 C1.5365625 7.11625 1.5365625 7.11625 1 8 C-0.5625 6.75 -0.5625 6.75 -2 5 C-1.74853421 2.86254078 -1.54074221 1.54074221 0 0 Z " fill="#E5E1A8" transform="translate(119,109)"/>
<path d="M0 0 C0.99 0 1.98 0 3 0 C3 0.66 3 1.32 3 2 C6.3 2 9.6 2 13 2 C13 2.33 13 2.66 13 3 C8.71 3 4.42 3 0 3 C-0.33 4.32 -0.66 5.64 -1 7 C-0.67 4.69 -0.34 2.38 0 0 Z " fill="#1D411B" transform="translate(52,97)"/>
<path d="M0 0 C1.32 0.33 2.64 0.66 4 1 C2.8125 3 2.8125 3 1 5 C-1.6875 5.25 -1.6875 5.25 -4 5 C-2.68 3.35 -1.36 1.7 0 0 Z " fill="#989D72" transform="translate(170,132)"/>
<path d="M0 0 C1.32 0.99 2.64 1.98 4 3 C4.33 2.01 4.66 1.02 5 0 C5.33 0 5.66 0 6 0 C6 1.98 6 3.96 6 6 C4.35 5.67 2.7 5.34 1 5 C0.67 3.35 0.34 1.7 0 0 Z " fill="#30612D" transform="translate(68,127)"/>
<path d="M0 0 C4.51720311 -0.36625971 4.51720311 -0.36625971 6.8125 1.375 C8 3 8 3 8 5 C4.75791433 4.64950425 3.38472296 4.43778819 1.1875 1.9375 C0.795625 1.298125 0.40375 0.65875 0 0 Z " fill="#98A57A" transform="translate(35,129)"/>
<path d="M0 0 C0.66 0 1.32 0 2 0 C2 2.64 2 5.28 2 8 C1.34 8 0.68 8 0 8 C0 7.34 0 6.68 0 6 C-0.99 5.67 -1.98 5.34 -3 5 C-2.34 5 -1.68 5 -1 5 C-0.67 3.35 -0.34 1.7 0 0 Z " fill="#8EB34B" transform="translate(142,100)"/>
<path d="M0 0 C0.33 0.66 0.66 1.32 1 2 C1.66 2.33 2.32 2.66 3 3 C3 3.66 3 4.32 3 5 C3.66 5.66 4.32 6.32 5 7 C2.69 7.33 0.38 7.66 -2 8 C-2 6.68 -2 5.36 -2 4 C-1.34 3.67 -0.68 3.34 0 3 C0 2.01 0 1.02 0 0 Z " fill="#808F72" transform="translate(133,70)"/>
<path d="M0 0 C1.98 0.66 3.96 1.32 6 2 C6 2.99 6 3.98 6 5 C4.02 5 2.04 5 0 5 C-0.33 4.34 -0.66 3.68 -1 3 C-0.67 2.01 -0.34 1.02 0 0 Z " fill="#C4C6A1" transform="translate(127,68)"/>
<path d="M0 0 C1.98 0 3.96 0 6 0 C7.09658936 3.28976808 6.79953138 4.71303767 6 8 C5.67 7.34 5.34 6.68 5 6 C4.01 5.67 3.02 5.34 2 5 C2.66 5 3.32 5 4 5 C4 4.34 4 3.68 4 3 C2.68 2.34 1.36 1.68 0 1 C0 0.67 0 0.34 0 0 Z " fill="#3D6637" transform="translate(124,123)"/>
<path d="M0 0 C2.97 0 5.94 0 9 0 C8.67 0.99 8.34 1.98 8 3 C5.125 3.1875 5.125 3.1875 2 3 C1.34 2.01 0.68 1.02 0 0 Z " fill="#195122" transform="translate(121,120)"/>
<path d="M0 0 C-0.33 0.99 -0.66 1.98 -1 3 C-3.64 3 -6.28 3 -9 3 C-9 2.34 -9 1.68 -9 1 C-5.846632 0.29925156 -3.27275026 0 0 0 Z " fill="#D9E1AF" transform="translate(130,116)"/>
<path d="M0 0 C1.32 0 2.64 0 4 0 C4 0.66 4 1.32 4 2 C3.01 2 2.02 2 1 2 C0.67 4.64 0.34 7.28 0 10 C-0.33 10 -0.66 10 -1 10 C-1.02689216 8.52093108 -1.04634621 7.04172517 -1.0625 5.5625 C-1.07410156 4.73878906 -1.08570313 3.91507812 -1.09765625 3.06640625 C-1 1 -1 1 0 0 Z " fill="#385C31" transform="translate(138,109)"/>
<path d="M0 0 C0.66 1.32 1.32 2.64 2 4 C1.01 4 0.02 4 -1 4 C-1.33 5.32 -1.66 6.64 -2 8 C-3.32 8 -4.64 8 -6 8 C-4.02 5.36 -2.04 2.72 0 0 Z " fill="#DADAC5" transform="translate(43,84)"/>
<path d="M0 0 C2.97 0.33 5.94 0.66 9 1 C8.01 2.485 8.01 2.485 7 4 C2.25 3.125 2.25 3.125 0 2 C0 1.34 0 0.68 0 0 Z " fill="#A0AC7E" transform="translate(75,150)"/>
<path d="M0 0 C3.77545388 1.09068668 6.47043472 1.9083091 9 5 C5.625 4.75 5.625 4.75 2 4 C0.5625 1.9375 0.5625 1.9375 0 0 Z " fill="#B7CA79" transform="translate(115,60)"/>
<path d="M0 0 C-1.0625 1.5 -1.0625 1.5 -3 3 C-6.6875 3.1875 -6.6875 3.1875 -10 3 C-9 1 -9 1 -7.25 0.375 C-4.79549443 -0.03408426 -2.4840589 -0.06900164 0 0 Z " fill="#84B447" transform="translate(138,142)"/>
<path d="M0 0 C0 0.33 0 0.66 0 1 C-1.65 1 -3.3 1 -5 1 C-5 2.32 -5 3.64 -5 5 C-6.32 4.67 -7.64 4.34 -9 4 C-8.67 3.01 -8.34 2.02 -8 1 C-5.29120665 -0.35439668 -2.99066732 -0.06501451 0 0 Z " fill="#93A876" transform="translate(76,105)"/>
<path d="M0 0 C3.65316671 1.24976756 4.78065836 1.67098753 7 5 C6.01 5.33 5.02 5.66 4 6 C4 5.34 4 4.68 4 4 C3.34 4 2.68 4 2 4 C2 3.34 2 2.68 2 2 C1.01 1.67 0.02 1.34 -1 1 C-0.67 0.67 -0.34 0.34 0 0 Z " fill="#4A6945" transform="translate(161,86)"/>
<path d="M0 0 C2.64 0 5.28 0 8 0 C8 0.66 8 1.32 8 2 C8.66 2.33 9.32 2.66 10 3 C3.375 2.25 3.375 2.25 0 0 Z " fill="#79875F" transform="translate(67,150)"/>
<path d="M0 0 C1.2065625 0.0309375 1.2065625 0.0309375 2.4375 0.0625 C2.4375 1.0525 2.4375 2.0425 2.4375 3.0625 C1.10416667 3.72916667 -0.22916667 4.39583333 -1.5625 5.0625 C-1.5625 4.0725 -1.5625 3.0825 -1.5625 2.0625 C-2.2225 1.7325 -2.8825 1.4025 -3.5625 1.0625 C-2.5625 0.0625 -2.5625 0.0625 0 0 Z " fill="#165323" transform="translate(83.5625,119.9375)"/>
<path d="M0 0 C0.33 0 0.66 0 1 0 C1.33 2.97 1.66 5.94 2 9 C1.01 9 0.02 9 -1 9 C-0.67 6.03 -0.34 3.06 0 0 Z " fill="#EBE0A5" transform="translate(55,109)"/>
<path d="M0 0 C2.13093906 1.06546953 3.36587557 2.29159719 5 4 C4.67 4.66 4.34 5.32 4 6 C1.69 5.34 -0.62 4.68 -3 4 C-2.01 2.68 -1.02 1.36 0 0 Z " fill="#416338" transform="translate(110,102)"/>
<path d="M0 0 C0.66 0 1.32 0 2 0 C2 0.66 2 1.32 2 2 C2.66 2.33 3.32 2.66 4 3 C2.35 4.65 0.7 6.3 -1 8 C-0.67 5.36 -0.34 2.72 0 0 Z " fill="#6F936B" transform="translate(104,94)"/>
<path d="M0 0 C0.66 0 1.32 0 2 0 C1.67 2.64 1.34 5.28 1 8 C0.01 7.34 -0.98 6.68 -2 6 C-1.34 4.02 -0.68 2.04 0 0 Z " fill="#2D4E25" transform="translate(103,91)"/>
<path d="M0 0 C4.455 0.99 4.455 0.99 9 2 C9 2.33 9 2.66 9 3 C6.69 3.33 4.38 3.66 2 4 C1.34 2.68 0.68 1.36 0 0 Z " fill="#C3C4A3" transform="translate(134,71)"/>
</svg>
